{
  "accessors": [
    {
      "bufferView": 0,
      "componentType": 5126,
      "count": 1303,
      "max": [
        0.48731356859207153,
        0.20347429811954498,
        1.046104907989502
      ],
      "min": [
        -0.48731356859207153,
        -0.4812394082546234,
        -9.53674295089968e-09
      ],
      "name": "NPC_Summon_001/POSITION",
      "type": "VEC3"
    },
    {
      "bufferView": 0,
      "byteOffset": 12,
      "componentType": 5126,
      "count": 1303,
      "name": "NPC_Summon_001/NORMAL",
      "type": "VEC3"
    },
    {
      "bufferView": 0,
      "byteOffset": 24,
      "componentType": 5126,
      "count": 1303,
      "name": "NPC_Summon_001/TEXCOORD_0",
      "type": "VEC2"
    },
    {
      "bufferView": 0,
      "byteOffset": 32,
      "componentType": 5123,
      "count": 1303,
      "name": "NPC_Summon_001/JOINTS_0",
      "type": "VEC4"
    },
    {
      "bufferView": 0,
      "byteOffset": 40,
      "componentType": 5126,
      "count": 1303,
      "name": "NPC_Summon_001/WEIGHTS_0",
      "type": "VEC4"
    },
    {
      "bufferView": 1,
      "componentType": 5123,
      "count": 6306,
      "name": "NPC_Summon_001/INDICES",
      "type": "SCALAR"
    },
    {
      "bufferView": 2,
      "componentType": 5126,
      "count": 27,
      "name": "/InverseBindMatrices",
      "type": "MAT4"
    },
    {
      "bufferView": 3,
      "componentType": 5126,
      "count": 260,
      "max": [
        0.08558182418346405,
        0.04941118136048317,
        0.8779588341712952
      ],
      "min": [
        -0.29371723532676697,
        -0.049411144107580185,
        0.0
      ],
      "name": "Prop_Axe01/POSITION",
      "type": "VEC3"
    },
    {
      "bufferView": 3,
      "byteOffset": 12,
      "componentType": 5126,
      "count": 260,
      "name": "Prop_Axe01/NORMAL",
      "type": "VEC3"
    },
    {
      "bufferView": 3,
      "byteOffset": 24,
      "componentType": 5126,
      "count": 260,
      "name": "Prop_Axe01/TEXCOORD_0",
      "type": "VEC2"
    },
    {
      "bufferView": 3,
      "byteOffset": 32,
      "componentType": 5126,
      "count": 260,
      "name": "Prop_Axe01/COLOR_0",
      "type": "VEC4"
    },
    {
      "bufferView": 3,
      "byteOffset": 48,
      "componentType": 5123,
      "count": 260,
      "name": "Prop_Axe01/JOINTS_0",
      "type": "VEC4"
    },
    {
      "bufferView": 3,
      "byteOffset": 56,
      "componentType": 5126,
      "count": 260,
      "name": "Prop_Axe01/WEIGHTS_0",
      "type": "VEC4"
    },
    {
      "bufferView": 4,
      "componentType": 5123,
      "count": 1170,
      "name": "Prop_Axe01/INDICES",
      "type": "SCALAR"
    },
    {
      "bufferView": 5,
      "componentType": 5126,
      "count": 1,
      "name": "/InverseBindMatrices",
      "type": "MAT4"
    },
    {
      "bufferView": 6,
      "componentType": 5126,
      "count": 1342,
      "max": [
        0.4620928466320038,
        0.6142587661743164,
        0.616187572479248
      ],
      "min": [
        -0.46209293603897095,
        -0.6142587661743164,
        -0.0028430987149477005
      ],
      "name": "Wagon/POSITION",
      "type": "VEC3"
    },
    {
      "bufferView": 6,
      "byteOffset": 12,
      "componentType": 5126,
      "count": 1342,
      "name": "Wagon/NORMAL",
      "type": "VEC3"
    },
    {
      "bufferView": 6,
      "byteOffset": 24,
      "componentType": 5126,
      "count": 1342,
      "name": "Wagon/TEXCOORD_0",
      "type": "VEC2"
    },
    {
      "bufferView": 6,
      "byteOffset": 32,
      "componentType": 5126,
      "count": 1342,
      "name": "Wagon/COLOR_0",
      "type": "VEC4"
    },
    {
      "bufferView": 6,
      "byteOffset": 48,
      "componentType": 5123,
      "count": 1342,
      "name": "Wagon/JOINTS_0",
      "type": "VEC4"
    },
    {
      "bufferView": 6,
      "byteOffset": 56,
      "componentType": 5126,
      "count": 1342,
      "name": "Wagon/WEIGHTS_0",
      "type": "VEC4"
    },
    {
      "bufferView": 7,
      "componentType": 5123,
      "count": 4728,
      "name": "Wagon/INDICES",
      "type": "SCALAR"
    },
    {
      "bufferView": 8,
      "componentType": 5126,
      "count": 3,
      "name": "/InverseBindMatrices",
      "type": "MAT4"
    },
    {
      "bufferView": 9,
      "componentType": 5126,
      "count": 87,
      "max": [
        0.13818567991256714,
        0.13486766815185547,
        0.2711436450481415
      ],
      "min": [
        -0.130329892039299,
        -0.25368285179138184,
        -0.23199935257434845
      ],
      "name": "Hammer/POSITION",
      "type": "VEC3"
    },
    {
      "bufferView": 9,
      "byteOffset": 12,
      "componentType": 5126,
      "count": 87,
      "name": "Hammer/NORMAL",
      "type": "VEC3"
    },
    {
      "bufferView": 9,
      "byteOffset": 24,
      "componentType": 5126,
      "count": 87,
      "name": "Hammer/TEXCOORD_0",
      "type": "VEC2"
    },
    {
      "bufferView": 9,
      "byteOffset": 32,
      "componentType": 5126,
      "count": 87,
      "name": "Hammer/COLOR_0",
      "type": "VEC4"
    },
    {
      "bufferView": 9,
      "byteOffset": 48,
      "componentType": 5123,
      "count": 87,
      "name": "Hammer/JOINTS_0",
      "type": "VEC4"
    },
    {
      "bufferView": 9,
      "byteOffset": 56,
      "componentType": 5126,
      "count": 87,
      "name": "Hammer/WEIGHTS_0",
      "type": "VEC4"
    },
    {
      "bufferView": 10,
      "componentType": 5123,
      "count": 276,
      "name": "Hammer/INDICES",
      "type": "SCALAR"
    },
    {
      "bufferView": 11,
      "componentType": 5126,
      "count": 1,
      "name": "/InverseBindMatrices",
      "type": "MAT4"
    },
    {
      "bufferView": 12,
      "componentType": 5126,
      "count": 1057,
      "max": [
        0.28637057542800903,
        0.5218374133110046,
        0.13357828557491302
      ],
      "min": [
        -0.28637057542800903,
        -0.1269281804561615,
        -0.2188115268945694
      ],
      "name": "crossbow001/POSITION",
      "type": "VEC3"
    },
    {
      "bufferView": 12,
      "byteOffset": 12,
      "componentType": 5126,
      "count": 1057,
      "name": "crossbow001/NORMAL",
      "type": "VEC3"
    },
    {
      "bufferView": 12,
      "byteOffset": 24,
      "componentType": 5126,
      "count": 1057,
      "name": "crossbow001/TEXCOORD_0",
      "type": "VEC2"
    },
    {
      "bufferView": 12,
      "byteOffset": 32,
      "componentType": 5123,
      "count": 1057,
      "name": "crossbow001/JOINTS_0",
      "type": "VEC4"
    },
    {
      "bufferView": 12,
      "byteOffset": 40,
      "componentType": 5126,
      "count": 1057,
      "name": "crossbow001/WEIGHTS_0",
      "type": "VEC4"
    },
    {
      "bufferView": 13,
      "componentType": 5123,
      "count": 4068,
      "name": "crossbow001/INDICES",
      "type": "SCALAR"
    },
    {
      "bufferView": 14,
      "componentType": 5126,
      "count": 1,
      "name": "/InverseBindMatrices",
      "type": "MAT4"
    },
    {
      "bufferView": 15,
      "componentType": 5126,
      "count": 1057,
      "max": [
        0.28637057542800903,
        0.5218374133110046,
        0.13357828557491302
      ],
      "min": [
        -0.28637057542800903,
        -0.1269281804561615,
        -0.2188115268945694
      ],
      "name": "crossbow002/POSITION",
      "type": "VEC3"
    },
    {
      "bufferView": 15,
      "byteOffset": 12,
      "componentType": 5126,
      "count": 1057,
      "name": "crossbow002/NORMAL",
      "type": "VEC3"
    },
    {
      "bufferView": 15,
      "byteOffset": 24,
      "componentType": 5126,
      "count": 1057,
      "name": "crossbow002/TEXCOORD_0",
      "type": "VEC2"
    },
    {
      "bufferView": 15,
      "byteOffset": 32,
      "componentType": 5123,
      "count": 1057,
      "name": "crossbow002/JOINTS_0",
      "type": "VEC4"
    },
    {
      "bufferView": 15,
      "byteOffset": 40,
      "componentType": 5126,
      "count": 1057,
      "name": "crossbow002/WEIGHTS_0",
      "type": "VEC4"
    },
    {
      "bufferView": 16,
      "componentType": 5123,
      "count": 4068,
      "name": "crossbow002/INDICES",
      "type": "SCALAR"
    },
    {
      "bufferView": 17,
      "componentType": 5126,
      "count": 1,
      "name": "/InverseBindMatrices",
      "type": "MAT4"
    }
  ],
  "asset": {
    "copyright": "Copyright (c) 2018-2020 Chukong Technologies Inc.",
    "generator": "FBX-glTF-conv",
    "version": "2.0"
  },
  "bufferViews": [
    {
      "buffer": 0,
      "byteLength": 72968,
      "byteStride": 56,
      "name": "NPC_Summon_001",
      "target": 34962
    },
    {
      "buffer": 0,
      "byteLength": 12612,
      "byteOffset": 72968,
      "target": 34963
    },
    {
      "buffer": 0,
      "byteLength": 1728,
      "byteOffset": 85580
    },
    {
      "buffer": 0,
      "byteLength": 18720,
      "byteOffset": 87308,
      "byteStride": 72,
      "name": "Prop_Axe01",
      "target": 34962
    },
    {
      "buffer": 0,
      "byteLength": 2340,
      "byteOffset": 106028,
      "target": 34963
    },
    {
      "buffer": 0,
      "byteLength": 64,
      "byteOffset": 108368
    },
    {
      "buffer": 0,
      "byteLength": 96624,
      "byteOffset": 108432,
      "byteStride": 72,
      "name": "Wagon",
      "target": 34962
    },
    {
      "buffer": 0,
      "byteLength": 9456,
      "byteOffset": 205056,
      "target": 34963
    },
    {
      "buffer": 0,
      "byteLength": 192,
      "byteOffset": 214512
    },
    {
      "buffer": 0,
      "byteLength": 6264,
      "byteOffset": 214704,
      "byteStride": 72,
      "name": "Hammer",
      "target": 34962
    },
    {
      "buffer": 0,
      "byteLength": 552,
      "byteOffset": 220968,
      "target": 34963
    },
    {
      "buffer": 0,
      "byteLength": 64,
      "byteOffset": 221520
    },
    {
      "buffer": 0,
      "byteLength": 59192,
      "byteOffset": 221584,
      "byteStride": 56,
      "name": "crossbow001",
      "target": 34962
    },
    {
      "buffer": 0,
      "byteLength": 8136,
      "byteOffset": 280776,
      "target": 34963
    },
    {
      "buffer": 0,
      "byteLength": 64,
      "byteOffset": 288912
    },
    {
      "buffer": 0,
      "byteLength": 59192,
      "byteOffset": 288976,
      "byteStride": 56,
      "name": "crossbow002",
      "target": 34962
    },
    {
      "buffer": 0,
      "byteLength": 8136,
      "byteOffset": 348168,
      "target": 34963
    },
    {
      "buffer": 0,
      "byteLength": 64,
      "byteOffset": 356304
    }
  ],
  "buffers": [
    {
      "byteLength": 356368,
      "uri": "out.bin"
    }
  ],
  "extras": {
    "FBX-glTF-conv": {
      "animationFrameRate": 30.0,
      "fbxFileHeaderInfo": {
        "creationTimeStamp": {
          "day": 22,
          "hour": 11,
          "millisecond": 845,
          "minute": 56,
          "month": 4,
          "second": 45,
          "year": 2026
        },
        "creator": "FBX SDK/FBX Plugins version 2020.3.5",
        "sceneInfo": {
          "author": "",
          "comment": "",
          "keywords": "",
          "original": {
            "applicationName": "3ds Max",
            "applicationVendor": "Autodesk",
            "applicationVersion": "2025",
            "fileName": "C:\\PRR\\dfw-client\\dfwClient\\Assets\\TT\\Resources\\Character\\NPC\\NPC_Summon\\Mesh\\NPC_TTSummon_001_Mesh.fbx"
          },
          "revision": "",
          "subject": "",
          "title": "",
          "url": "C:\\Users\\김유성\\Desktop\\cocos creator practice\\testproject - 복사본\\assets\\NPC_Summon\\Mesh\\NPC_TTSummon_001_Mesh.fbx"
        }
      }
    }
  },
  "materials": [
    {
      "extras": {
        "FBX-glTF-conv": {
          "raw": {
            "properties": {
              "3dsMax": {
                "value": {
                  "ClassIDa": {
                    "value": 1030429932
                  },
                  "ClassIDb": {
                    "value": -559038463
                  },
                  "ORIGINAL_MTL": {
                    "value": "PHYSICAL_MTL"
                  },
                  "Parameters": {
                    "value": {
                      "aniso_angle_map_on": {
                        "value": true
                      },
                      "aniso_channel": {
                        "value": 0
                      },
                      "aniso_mode": {
                        "value": 0
                      },
                      "anisoangle": {
                        "value": 0.25
                      },
                      "anisotropy": {
                        "value": 0.0
                      },
                      "anisotropy_map_on": {
                        "value": true
                      },
                      "base_color": {
                        "value": [
                          0.5,
                          0.5,
                          0.5,
                          1.0
                        ]
                      },
                      "base_color_map_on": {
                        "value": true
                      },
                      "base_weight": {
                        "value": 1.0
                      },
                      "base_weight_map_on": {
                        "value": true
                      },
                      "brdf_curve": {
                        "value": 5.0
                      },
                      "brdf_high": {
                        "value": 1.0
                      },
                      "brdf_low": {
                        "value": 0.05000000074505806
                      },
                      "brdf_mode": {
                        "value": true
                      },
                      "coat_affect_color": {
                        "value": 0.5
                      },
                      "coat_affect_roughness": {
                        "value": 0.5
                      },
                      "coat_aniso_angle_map_on": {
                        "value": true
                      },
                      "coat_aniso_map_on": {
                        "value": true
                      },
                      "coat_anisoangle": {
                        "value": 0.25
                      },
                      "coat_anisotropy": {
                        "value": 0.0
                      },
                      "coat_color": {
                        "value": [
                          1.0,
                          1.0,
                          1.0,
                          1.0
                        ]
                      },
                      "coat_color_map_on": {
                        "value": true
                      },
                      "coat_ior": {
                        "value": 1.5199999809265137
                      },
                      "coat_map_on": {
                        "value": true
                      },
                      "coat_rough_map_on": {
                        "value": true
                      },
                      "coat_roughness": {
                        "value": 0.0
                      },
                      "coat_roughness_inv": {
                        "value": false
                      },
                      "coating": {
                        "value": 0.0
                      },
                      "cutout_map_on": {
                        "value": true
                      },
                      "diff_rough_map_on": {
                        "value": true
                      },
                      "diff_roughness": {
                        "value": 0.0
                      },
                      "dispersion": {
                        "value": 0.0
                      },
                      "displacement_map_amt": {
                        "value": 1.0
                      },
                      "displacement_map_on": {
                        "value": true
                      },
                      "emission": {
                        "value": 1.0
                      },
                      "emission_map_on": {
                        "value": true
                      },
                      "emit_color": {
                        "value": [
                          0.0,
                          0.0,
                          0.0,
                          1.0
                        ]
                      },
                      "emit_color_map_on": {
                        "value": true
                      },
                      "emit_kelvin": {
                        "value": 6500.0
                      },
                      "emit_luminance": {
                        "value": 1500.0
                      },
                      "material_mode": {
                        "value": 0
                      },
                      "metalness": {
                        "value": 0.0
                      },
                      "metalness_map_on": {
                        "value": true
                      },
                      "refl_color": {
                        "value": [
                          1.0,
                          1.0,
                          1.0,
                          1.0
                        ]
                      },
                      "refl_color_map_on": {
                        "value": true
                      },
                      "reflectivity": {
                        "value": 1.0
                      },
                      "reflectivity_map_on": {
                        "value": true
                      },
                      "roughness": {
                        "value": 0.0
                      },
                      "roughness_inv": {
                        "value": false
                      },
                      "roughness_map_on": {
                        "value": true
                      },
                      "scattering": {
                        "value": 0.0
                      },
                      "scattering_map_on": {
                        "value": true
                      },
                      "sheen": {
                        "value": 0.0
                      },
                      "sheen_color": {
                        "value": [
                          1.0,
                          1.0,
                          1.0,
                          1.0
                        ]
                      },
                      "sheen_color_map_on": {
                        "value": true
                      },
                      "sheen_map_on": {
                        "value": true
                      },
                      "sheen_rough_map_on": {
                        "value": true
                      },
                      "sheen_roughness": {
                        "value": 0.30000001192092896
                      },
                      "sss_color": {
                        "value": [
                          1.0,
                          1.0,
                          1.0,
                          1.0
                        ]
                      },
                      "sss_color_map_on": {
                        "value": true
                      },
                      "sss_depth": {
                        "value": 10.0
                      },
                      "sss_scale": {
                        "value": 1.0
                      },
                      "sss_scale_map_on": {
                        "value": true
                      },
                      "sss_scatter_color": {
                        "value": [
                          9.999999843067494e+17,
                          4.999999921533747e+17,
                          2.4999999607668736e+17,
                          1.0
                        ]
                      },
                      "thin_film": {
                        "value": 0.0
                      },
                      "thin_film_ior": {
                        "value": 1.2999999523162842
                      },
                      "thin_film_ior_map_on": {
                        "value": true
                      },
                      "thin_film_map_on": {
                        "value": true
                      },
                      "thin_film_thickness": {
                        "value": 0.0
                      },
                      "thin_walled": {
                        "value": false
                      },
                      "trans_color": {
                        "value": [
                          1.0,
                          1.0,
                          1.0,
                          1.0
                        ]
                      },
                      "trans_color_map_on": {
                        "value": true
                      },
                      "trans_depth": {
                        "value": 0.0
                      },
                      "trans_ior": {
                        "value": 1.5199999809265137
                      },
                      "trans_ior_map_on": {
                        "value": true
                      },
                      "trans_rough_map_on": {
                        "value": true
                      },
                      "trans_roughness": {
                        "value": 0.0
                      },
                      "trans_roughness_inv": {
                        "value": false
                      },
                      "trans_roughness_lock": {
                        "value": true
                      },
                      "trans_scatter_aniso": {
                        "value": 0.0
                      },
                      "trans_scatter_color": {
                        "value": [
                          0.0,
                          0.0,
                          0.0,
                          1.0
                        ]
                      },
                      "transparency": {
                        "value": 0.0
                      },
                      "transparency_map_on": {
                        "value": true
                      }
                    }
                  },
                  "SuperClassID": {
                    "value": 3072
                  }
                }
              },
              "AmbientColor": {
                "value": [
                  0.5,
                  0.5,
                  0.5
                ]
              },
              "DiffuseColor": {
                "value": [
                  0.5,
                  0.5,
                  0.5
                ]
              },
              "EmissiveColor": {
                "value": [
                  0.0,
                  0.0,
                  0.0
                ]
              },
              "EmissiveFactor": {
                "value": 0.0
              },
              "MultiLayer": {
                "value": false
              },
              "ShadingModel": {
                "value": "unknown"
              },
              "ShininessExponent": {
                "value": 1024.0
              },
              "SpecularColor": {
                "value": [
                  1.0,
                  1.0,
                  1.0
                ]
              },
              "SpecularFactor": {
                "value": 2.0
              },
              "TransparencyFactor": {
                "value": 0.0
              }
            }
          }
        }
      },
      "name": "Material #1"
    },
    {
      "extras": {
        "FBX-glTF-conv": {
          "raw": {
            "properties": {
              "3dsMax": {
                "value": {
                  "ClassIDa": {
                    "value": 1030429932
                  },
                  "ClassIDb": {
                    "value": -559038463
                  },
                  "ORIGINAL_MTL": {
                    "value": "PHYSICAL_MTL"
                  },
                  "Parameters": {
                    "value": {
                      "aniso_angle_map_on": {
                        "value": true
                      },
                      "aniso_channel": {
                        "value": 0
                      },
                      "aniso_mode": {
                        "value": 0
                      },
                      "anisoangle": {
                        "value": 0.25
                      },
                      "anisotropy": {
                        "value": 0.0
                      },
                      "anisotropy_map_on": {
                        "value": true
                      },
                      "base_color": {
                        "value": [
                          0.5,
                          0.5,
                          0.5,
                          1.0
                        ]
                      },
                      "base_color_map_on": {
                        "value": true
                      },
                      "base_weight": {
                        "value": 1.0
                      },
                      "base_weight_map_on": {
                        "value": true
                      },
                      "brdf_curve": {
                        "value": 5.0
                      },
                      "brdf_high": {
                        "value": 1.0
                      },
                      "brdf_low": {
                        "value": 0.05000000074505806
                      },
                      "brdf_mode": {
                        "value": true
                      },
                      "coat_affect_color": {
                        "value": 0.5
                      },
                      "coat_affect_roughness": {
                        "value": 0.5
                      },
                      "coat_aniso_angle_map_on": {
                        "value": true
                      },
                      "coat_aniso_map_on": {
                        "value": true
                      },
                      "coat_anisoangle": {
                        "value": 0.25
                      },
                      "coat_anisotropy": {
                        "value": 0.0
                      },
                      "coat_color": {
                        "value": [
                          1.0,
                          1.0,
                          1.0,
                          1.0
                        ]
                      },
                      "coat_color_map_on": {
                        "value": true
                      },
                      "coat_ior": {
                        "value": 1.5199999809265137
                      },
                      "coat_map_on": {
                        "value": true
                      },
                      "coat_rough_map_on": {
                        "value": true
                      },
                      "coat_roughness": {
                        "value": 0.0
                      },
                      "coat_roughness_inv": {
                        "value": false
                      },
                      "coating": {
                        "value": 0.0
                      },
                      "cutout_map_on": {
                        "value": true
                      },
                      "diff_rough_map_on": {
                        "value": true
                      },
                      "diff_roughness": {
                        "value": 0.0
                      },
                      "dispersion": {
                        "value": 0.0
                      },
                      "displacement_map_amt": {
                        "value": 1.0
                      },
                      "displacement_map_on": {
                        "value": true
                      },
                      "emission": {
                        "value": 1.0
                      },
                      "emission_map_on": {
                        "value": true
                      },
                      "emit_color": {
                        "value": [
                          0.0,
                          0.0,
                          0.0,
                          1.0
                        ]
                      },
                      "emit_color_map_on": {
                        "value": true
                      },
                      "emit_kelvin": {
                        "value": 6500.0
                      },
                      "emit_luminance": {
                        "value": 1500.0
                      },
                      "material_mode": {
                        "value": 0
                      },
                      "metalness": {
                        "value": 0.0
                      },
                      "metalness_map_on": {
                        "value": true
                      },
                      "refl_color": {
                        "value": [
                          1.0,
                          1.0,
                          1.0,
                          1.0
                        ]
                      },
                      "refl_color_map_on": {
                        "value": true
                      },
                      "reflectivity": {
                        "value": 1.0
                      },
                      "reflectivity_map_on": {
                        "value": true
                      },
                      "roughness": {
                        "value": 0.0
                      },
                      "roughness_inv": {
                        "value": false
                      },
                      "roughness_map_on": {
                        "value": true
                      },
                      "scattering": {
                        "value": 0.0
                      },
                      "scattering_map_on": {
                        "value": true
                      },
                      "sheen": {
                        "value": 0.0
                      },
                      "sheen_color": {
                        "value": [
                          1.0,
                          1.0,
                          1.0,
                          1.0
                        ]
                      },
                      "sheen_color_map_on": {
                        "value": true
                      },
                      "sheen_map_on": {
                        "value": true
                      },
                      "sheen_rough_map_on": {
                        "value": true
                      },
                      "sheen_roughness": {
                        "value": 0.30000001192092896
                      },
                      "sss_color": {
                        "value": [
                          1.0,
                          1.0,
                          1.0,
                          1.0
                        ]
                      },
                      "sss_color_map_on": {
                        "value": true
                      },
                      "sss_depth": {
                        "value": 10.0
                      },
                      "sss_scale": {
                        "value": 1.0
                      },
                      "sss_scale_map_on": {
                        "value": true
                      },
                      "sss_scatter_color": {
                        "value": [
                          9.999999843067494e+17,
                          4.999999921533747e+17,
                          2.4999999607668736e+17,
                          1.0
                        ]
                      },
                      "thin_film": {
                        "value": 0.0
                      },
                      "thin_film_ior": {
                        "value": 1.2999999523162842
                      },
                      "thin_film_ior_map_on": {
                        "value": true
                      },
                      "thin_film_map_on": {
                        "value": true
                      },
                      "thin_film_thickness": {
                        "value": 0.0
                      },
                      "thin_walled": {
                        "value": false
                      },
                      "trans_color": {
                        "value": [
                          1.0,
                          1.0,
                          1.0,
                          1.0
                        ]
                      },
                      "trans_color_map_on": {
                        "value": true
                      },
                      "trans_depth": {
                        "value": 0.0
                      },
                      "trans_ior": {
                        "value": 1.5199999809265137
                      },
                      "trans_ior_map_on": {
                        "value": true
                      },
                      "trans_rough_map_on": {
                        "value": true
                      },
                      "trans_roughness": {
                        "value": 0.0
                      },
                      "trans_roughness_inv": {
                        "value": false
                      },
                      "trans_roughness_lock": {
                        "value": true
                      },
                      "trans_scatter_aniso": {
                        "value": 0.0
                      },
                      "trans_scatter_color": {
                        "value": [
                          0.0,
                          0.0,
                          0.0,
                          1.0
                        ]
                      },
                      "transparency": {
                        "value": 0.0
                      },
                      "transparency_map_on": {
                        "value": true
                      }
                    }
                  },
                  "SuperClassID": {
                    "value": 3072
                  }
                }
              },
              "AmbientColor": {
                "value": [
                  0.5,
                  0.5,
                  0.5
                ]
              },
              "DiffuseColor": {
                "value": [
                  0.5,
                  0.5,
                  0.5
                ]
              },
              "EmissiveColor": {
                "value": [
                  0.0,
                  0.0,
                  0.0
                ]
              },
              "EmissiveFactor": {
                "value": 0.0
              },
              "MultiLayer": {
                "value": false
              },
              "ShadingModel": {
                "value": "unknown"
              },
              "ShininessExponent": {
                "value": 1024.0
              },
              "SpecularColor": {
                "value": [
                  1.0,
                  1.0,
                  1.0
                ]
              },
              "SpecularFactor": {
                "value": 2.0
              },
              "TransparencyFactor": {
                "value": 0.0
              }
            }
          }
        }
      },
      "name": "Material #2"
    }
  ],
  "meshes": [
    {
      "name": "NPC_Summon_001",
      "primitives": [
        {
          "attributes": {
            "JOINTS_0": 3,
            "NORMAL": 1,
            "POSITION": 0,
            "TEXCOORD_0": 2,
            "WEIGHTS_0": 4
          },
          "indices": 5
        }
      ]
    },
    {
      "name": "Prop_Axe01",
      "primitives": [
        {
          "attributes": {
            "COLOR_0": 10,
            "JOINTS_0": 11,
            "NORMAL": 8,
            "POSITION": 7,
            "TEXCOORD_0": 9,
            "WEIGHTS_0": 12
          },
          "indices": 13
        }
      ]
    },
    {
      "name": "Wagon",
      "primitives": [
        {
          "attributes": {
            "COLOR_0": 18,
            "JOINTS_0": 19,
            "NORMAL": 16,
            "POSITION": 15,
            "TEXCOORD_0": 17,
            "WEIGHTS_0": 20
          },
          "indices": 21
        }
      ]
    },
    {
      "name": "Hammer",
      "primitives": [
        {
          "attributes": {
            "COLOR_0": 26,
            "JOINTS_0": 27,
            "NORMAL": 24,
            "POSITION": 23,
            "TEXCOORD_0": 25,
            "WEIGHTS_0": 28
          },
          "indices": 29
        }
      ]
    },
    {
      "name": "crossbow001",
      "primitives": [
        {
          "attributes": {
            "JOINTS_0": 34,
            "NORMAL": 32,
            "POSITION": 31,
            "TEXCOORD_0": 33,
            "WEIGHTS_0": 35
          },
          "indices": 36,
          "material": 0
        }
      ]
    },
    {
      "name": "crossbow002",
      "primitives": [
        {
          "attributes": {
            "JOINTS_0": 41,
            "NORMAL": 39,
            "POSITION": 38,
            "TEXCOORD_0": 40,
            "WEIGHTS_0": 42
          },
          "indices": 43,
          "material": 1
        }
      ]
    }
  ],
  "nodes": [
    {
      "mesh": 0,
      "name": "NPC_Summon_001",
      "rotation": [
        -0.7071067690849304,
        -0.0,
        0.0,
        0.7071067690849304
      ],
      "skin": 0,
      "translation": [
        0.0,
        0.0,
        -1.2379721692212797e-09
      ]
    },
    {
      "children": [
        2,
        32,
        33,
        36,
        37,
        38,
        39
      ],
      "name": "Root",
      "rotation": [
        -0.7071067690849304,
        -0.0,
        0.0,
        0.7071067690849304
      ]
    },
    {
      "children": [
        3
      ],
      "name": "Bip001",
      "rotation": [
        0.0,
        -0.0,
        -0.7071062922477722,
        0.7071072459220886
      ],
      "translation": [
        4.826304286775773e-12,
        0.00011043648555641994,
        0.282511830329895
      ]
    },
    {
      "children": [
        4,
        20,
        25,
        30,
        31
      ],
      "extras": {
        "FBX-glTF-conv": {
          "skeleton": {
            "skeletonType": "LimbNode"
          }
        }
      },
      "name": "Bip001 Pelvis",
      "rotation": [
        -0.5,
        -0.5,
        -0.4999993145465851,
        0.5000007152557373
      ]
    },
    {
      "children": [
        5
      ],
      "extras": {
        "FBX-glTF-conv": {
          "skeleton": {
            "skeletonType": "LimbNode"
          }
        }
      },
      "name": "Bip001 Spine",
      "rotation": [
        -2.1454825400724076e-06,
        -7.161100370467466e-07,
        0.0003981589979957789,
        0.9999999403953552
      ],
      "translation": [
        0.11033788323402405,
        -0.00015296335914172232,
        1.5322869728606747e-07
      ]
    },
    {
      "children": [
        6
      ],
      "extras": {
        "FBX-glTF-conv": {
          "skeleton": {
            "skeletonType": "LimbNode"
          }
        }
      },
      "name": "Bip001 Spine1",
      "translation": [
        0.19211795926094055,
        -0.00013292941730469465,
        -3.6852726426062077e-10
      ]
    },
    {
      "children": [
        7,
        13,
        19
      ],
      "name": "Bip001 Neck",
      "translation": [
        0.16195984184741974,
        -0.028134021908044815,
        -3.8253130441034955e-08
      ]
    },
    {
      "children": [
        8
      ],
      "extras": {
        "FBX-glTF-conv": {
          "skeleton": {
            "skeletonType": "LimbNode"
          }
        }
      },
      "name": "Bip001 L Clavicle",
      "rotation": [
        0.6772667765617371,
        -0.0002706061350181699,
        0.7357374429702759,
        0.00029193254886195064
      ],
      "translation": [
        -0.08852294832468033,
        0.04078007861971855,
        0.13222545385360718
      ]
    },
    {
      "children": [
        9,
        11
      ],
      "extras": {
        "FBX-glTF-conv": {
          "skeleton": {
            "skeletonType": "LimbNode"
          }
        }
      },
      "name": "Bip001 L UpperArm",
      "rotation": [
        0.03782586753368378,
        0.3028477430343628,
        -0.011664114892482758,
        0.9522165656089783
      ],
      "translation": [
        0.12998327612876892,
        1.19209286886246e-09,
        -5.340576194612368e-07
      ]
    },
    {
      "children": [
        10
      ],
      "extras": {
        "FBX-glTF-conv": {
          "skeleton": {
            "skeletonType": "LimbNode"
          }
        }
      },
      "name": "Bip001 L Forearm",
      "rotation": [
        1.958967210669016e-09,
        -1.4888803079315949e-08,
        0.006466705817729235,
        0.9999790787696838
      ],
      "translation": [
        0.12101764976978302,
        0.0,
        -7.629394360719743e-08
      ]
    },
    {
      "extras": {
        "FBX-glTF-conv": {
          "skeleton": {
            "skeletonType": "LimbNode"
          }
        }
      },
      "name": "Bip001 L Hand",
      "rotation": [
        -0.7068252563476563,
        4.479675297375252e-08,
        3.949483939891252e-08,
        0.7073882222175598
      ],
      "translation": [
        0.10169234871864319,
        -9.53674295089968e-09,
        -7.629394360719743e-08
      ]
    },
    {
      "children": [
        12
      ],
      "extras": {
        "FBX-glTF-conv": {
          "skeleton": {
            "skeletonType": "LimbNode"
          }
        }
      },
      "name": "Bone L UpperArm Twist",
      "rotation": [
        -0.03969268128275871,
        -1.9363632475233317e-07,
        -5.8278928349864145e-09,
        0.9992119073867798
      ],
      "translation": [
        1.1444091541079615e-07,
        9.53674295089968e-09,
        -1.5258788721439487e-07
      ]
    },
    {
      "extras": {
        "FBX-glTF-conv": {
          "skeleton": {
            "skeletonType": "LimbNode"
          }
        }
      },
      "name": "Bone L UpperArm Twist1",
      "rotation": [
        0.019850265234708786,
        2.686401101570368e-11,
        1.3530616627122072e-09,
        0.9998029470443726
      ],
      "translation": [
        0.06050889939069748,
        9.53674295089968e-09,
        7.629394360719743e-08
      ]
    },
    {
      "children": [
        14
      ],
      "extras": {
        "FBX-glTF-conv": {
          "skeleton": {
            "skeletonType": "LimbNode"
          }
        }
      },
      "name": "Bip001 R Clavicle",
      "rotation": [
        -0.6772668361663818,
        0.0002687351079657674,
        0.7357373833656311,
        0.00029397179605439305
      ],
      "translation": [
        -0.08852287381887436,
        0.04078081250190735,
        -0.13222530484199524
      ]
    },
    {
      "children": [
        15,
        17
      ],
      "extras": {
        "FBX-glTF-conv": {
          "skeleton": {
            "skeletonType": "LimbNode"
          }
        }
      },
      "name": "Bip001 R UpperArm",
      "rotation": [
        -0.03782591223716736,
        -0.30284756422042847,
        -0.0116641316562891,
        0.952216625213623
      ],
      "translation": [
        0.12998338043689728,
        -2.0265579436795633e-08,
        5.340576194612368e-07
      ]
    },
    {
      "children": [
        16
      ],
      "extras": {
        "FBX-glTF-conv": {
          "skeleton": {
            "skeletonType": "LimbNode"
          }
        }
      },
      "name": "Bip001 R Forearm",
      "rotation": [
        9.537494349842746e-09,
        2.533867018428282e-07,
        0.006466698832809925,
        0.9999790787696838
      ],
      "translation": [
        0.12101764976978302,
        9.53674295089968e-09,
        -1.5258788721439487e-07
      ]
    },
    {
      "extras": {
        "FBX-glTF-conv": {
          "skeleton": {
            "skeletonType": "LimbNode"
          }
        }
      },
      "name": "Bip001 R Hand",
      "rotation": [
        0.7068251371383667,
        -4.084706262119653e-08,
        4.3447673903074246e-08,
        0.7073882818222046
      ],
      "translation": [
        0.10169254243373871,
        -9.53674295089968e-09,
        1.5258788721439487e-07
      ]
    },
    {
      "children": [
        18
      ],
      "extras": {
        "FBX-glTF-conv": {
          "skeleton": {
            "skeletonType": "LimbNode"
          }
        }
      },
      "name": "Bone R UpperArm Twist",
      "rotation": [
        0.03969266265630722,
        2.085257904127502e-07,
        -6.419357045928109e-09,
        0.9992119073867798
      ],
      "translation": [
        1.7166138377433526e-07,
        -2.8610228852699038e-08,
        7.629394360719743e-08
      ]
    },
    {
      "extras": {
        "FBX-glTF-conv": {
          "skeleton": {
            "skeletonType": "LimbNode"
          }
        }
      },
      "name": "Bone R UpperArm Twist1",
      "rotation": [
        -0.01985013484954834,
        -4.474234671647537e-08,
        1.513223102378447e-09,
        0.9998029470443726
      ],
      "translation": [
        0.06050889939069748,
        3.5762786065873797e-09,
        -7.629394360719743e-08
      ]
    },
    {
      "extras": {
        "FBX-glTF-conv": {
          "skeleton": {
            "skeletonType": "LimbNode"
          }
        }
      },
      "name": "Bip001 Head",
      "rotation": [
        3.5220741254060606e-13,
        1.1042969871866148e-09,
        -0.0003988743119407445,
        0.9999999403953552
      ],
      "translation": [
        0.023083191365003586,
        -1.4305114426349519e-08,
        -1.45519149031062e-13
      ]
    },
    {
      "children": [
        21,
        24
      ],
      "extras": {
        "FBX-glTF-conv": {
          "skeleton": {
            "skeletonType": "LimbNode"
          }
        }
      },
      "name": "Bip001 L Thigh",
      "rotation": [
        0.02333098277449608,
        0.9996899962425232,
        0.0002090687194140628,
        0.008690517395734787
      ],
      "translation": [
        -1.9073486612342094e-07,
        2.1248123971417954e-07,
        0.14431753754615784
      ]
    },
    {
      "children": [
        22
      ],
      "extras": {
        "FBX-glTF-conv": {
          "skeleton": {
            "skeletonType": "LimbNode"
          }
        }
      },
      "name": "Bip001 L Calf",
      "rotation": [
        7.842396176904742e-10,
        3.679292648328669e-09,
        -0.07024005800485611,
        0.9975301027297974
      ],
      "translation": [
        0.16741223633289337,
        9.53674295089968e-09,
        -2.8610228852699038e-08
      ]
    },
    {
      "children": [
        23
      ],
      "extras": {
        "FBX-glTF-conv": {
          "skeleton": {
            "skeletonType": "LimbNode"
          }
        }
      },
      "name": "Bip001 L Foot",
      "rotation": [
        -0.00040109557448886335,
        0.008683092892169952,
        0.046944767236709595,
        0.9988596439361572
      ],
      "scale": [
        1.0000009536743164,
        1.0,
        1.0
      ],
      "translation": [
        0.050662655383348465,
        -2.98023217215615e-10,
        4.7683716530855236e-08
      ]
    },
    {
      "name": "Bip001 L Toe0",
      "rotation": [
        1.5454467927611404e-08,
        1.5454517665602907e-08,
        0.7071067690849304,
        0.7071067690849304
      ],
      "translation": [
        0.06537935882806778,
        0.06834955513477325,
        1.5258788721439487e-07
      ]
    },
    {
      "extras": {
        "FBX-glTF-conv": {
          "skeleton": {
            "skeletonType": "LimbNode"
          }
        }
      },
      "name": "Bone L Thigh Twist",
      "rotation": [
        0.00020918231166433543,
        1.955972095402103e-08,
        9.309134796353646e-09,
        1.0
      ],
      "translation": [
        0.0,
        -1.19209286886246e-09,
        -1.907348590179936e-08
      ]
    },
    {
      "children": [
        26,
        29
      ],
      "extras": {
        "FBX-glTF-conv": {
          "skeleton": {
            "skeletonType": "LimbNode"
          }
        }
      },
      "name": "Bip001 R Thigh",
      "rotation": [
        0.023331092670559883,
        0.9996899962425232,
        -0.0002105353050865233,
        -0.008688942529261112
      ],
      "translation": [
        1.9073486612342094e-07,
        -1.8778257526719244e-07,
        -0.14431753754615784
      ]
    },
    {
      "children": [
        27
      ],
      "extras": {
        "FBX-glTF-conv": {
          "skeleton": {
            "skeletonType": "LimbNode"
          }
        }
      },
      "name": "Bip001 R Calf",
      "rotation": [
        2.7561503079809313e-10,
        -1.8866641582349075e-09,
        -0.07024003565311432,
        0.9975301027297974
      ],
      "translation": [
        0.1674121469259262,
        -7.1525572131747595e-09,
        2.47955313170678e-07
      ]
    },
    {
      "children": [
        28
      ],
      "extras": {
        "FBX-glTF-conv": {
          "skeleton": {
            "skeletonType": "LimbNode"
          }
        }
      },
      "name": "Bip001 R Foot",
      "rotation": [
        0.0004011605924461037,
        -0.008682897314429283,
        0.046944741159677505,
        0.9988596439361572
      ],
      "translation": [
        0.050662681460380554,
        -4.172325152040912e-09,
        -1.0490417423625331e-07
      ]
    },
    {
      "name": "Bip001 R Toe0",
      "rotation": [
        -1.5362528144133997e-14,
        1.5362528144133997e-14,
        0.7071067690849304,
        0.7071067690849304
      ],
      "translation": [
        0.06537938863039017,
        0.06834960728883743,
        0.0
      ]
    },
    {
      "extras": {
        "FBX-glTF-conv": {
          "skeleton": {
            "skeletonType": "LimbNode"
          }
        }
      },
      "name": "Bone R Thigh Twist",
      "rotation": [
        -0.0002105236053466797,
        -2.7414222003585564e-09,
        -2.495950468528463e-07,
        1.0
      ],
      "translation": [
        3.814697180359872e-08,
        -3.5762786065873797e-09,
        -1.907348590179936e-08
      ]
    },
    {
      "extras": {
        "FBX-glTF-conv": {
          "skeleton": {
            "skeletonType": "LimbNode"
          }
        }
      },
      "name": "Bip001_B_R Hip",
      "rotation": [
        0.7394389510154724,
        -0.6732161641120911,
        0.0020257215946912766,
        0.0024408905301243067
      ],
      "translation": [
        0.027578335255384445,
        -0.001499961013905704,
        -0.14431752264499664
      ]
    },
    {
      "extras": {
        "FBX-glTF-conv": {
          "skeleton": {
            "skeletonType": "LimbNode"
          }
        }
      },
      "name": "Bip001_B_L Hip",
      "rotation": [
        0.7394389510154724,
        -0.6732161641120911,
        -0.0020235127303749323,
        -0.002439685631543398
      ],
      "translation": [
        0.027577990666031837,
        -0.001499165315181017,
        0.14431752264499664
      ]
    },
    {
      "extras": {
        "FBX-glTF-conv": {
          "skeleton": {
            "skeletonType": "LimbNode"
          }
        }
      },
      "name": "Bone_Branch",
      "rotation": [
        6.181723932741079e-08,
        5.3917861928681754e-14,
        -0.7071061730384827,
        0.707107424736023
      ],
      "scale": [
        9.999999747378752e-05,
        9.999999747378752e-05,
        9.999999747378752e-05
      ],
      "translation": [
        4.826304286775773e-12,
        0.00011043648555641994,
        0.2825118899345398
      ]
    },
    {
      "children": [
        34,
        35
      ],
      "extras": {
        "FBX-glTF-conv": {
          "skeleton": {
            "skeletonType": "LimbNode"
          }
        }
      },
      "name": "Bone_Wagon",
      "rotation": [
        0.0,
        0.0,
        -0.7071068286895752,
        0.7071067094802856
      ],
      "scale": [
        9.999999747378752e-05,
        9.999999747378752e-05,
        9.999999747378752e-05
      ],
      "translation": [
        4.826304286775773e-12,
        0.00011043648555641994,
        0.2825115919113159
      ]
    },
    {
      "extras": {
        "FBX-glTF-conv": {
          "skeleton": {
            "skeletonType": "LimbNode"
          }
        }
      },
      "name": "Wagon_R_Wheel",
      "rotation": [
        -0.5000000596046448,
        0.4999999403953552,
        0.4999999701976776,
        0.5000000596046448
      ],
      "translation": [
        0.5427769422531128,
        -0.15123721957206726,
        0.4153124988079071
      ]
    },
    {
      "extras": {
        "FBX-glTF-conv": {
          "skeleton": {
            "skeletonType": "LimbNode"
          }
        }
      },
      "name": "Wagon_L_Wheel",
      "rotation": [
        -0.5000000596046448,
        0.4999999403953552,
        0.4999999701976776,
        0.5000000596046448
      ],
      "translation": [
        0.5427768230438232,
        -0.151237353682518,
        -0.4153124988079071
      ]
    },
    {
      "extras": {
        "FBX-glTF-conv": {
          "skeleton": {
            "skeletonType": "LimbNode"
          }
        }
      },
      "name": "Bone_Hammer",
      "rotation": [
        6.181723932741079e-08,
        4.2864078578881346e-14,
        -0.7071062922477722,
        0.7071072459220886
      ],
      "scale": [
        9.999999747378752e-05,
        9.999999747378752e-05,
        9.999999747378752e-05
      ],
      "translation": [
        4.838511969557091e-12,
        0.00011043647100450471,
        0.2825118899345398
      ]
    },
    {
      "extras": {
        "FBX-glTF-conv": {
          "skeleton": {
            "skeletonType": "LimbNode"
          }
        }
      },
      "name": "Bone_CrossBow",
      "rotation": [
        0.7071070671081543,
        -0.7071065306663513,
        -3.0626605962424946e-07,
        3.062662869979249e-07
      ],
      "scale": [
        9.999999747378752e-05,
        9.999999747378752e-05,
        9.999999747378752e-05
      ],
      "translation": [
        -1.5176763099589152e-06,
        0.004720221273601055,
        0.3758506774902344
      ]
    },
    {
      "extras": {
        "FBX-glTF-conv": {
          "skeleton": {
            "skeletonType": "LimbNode"
          }
        }
      },
      "name": "Bone_CrossBow_02",
      "rotation": [
        0.70710688829422,
        -0.7071066498756409,
        1.9106383319922315e-07,
        -2.528810796320613e-07
      ],
      "scale": [
        9.999999747378752e-05,
        9.999999747378752e-05,
        9.999999747378752e-05
      ],
      "translation": [
        6.099511438151239e-07,
        -1.2911544899907312e-07,
        0.3149339258670807
      ]
    },
    {
      "extras": {
        "FBX-glTF-conv": {
          "skeleton": {
            "skeletonType": "LimbNode"
          }
        }
      },
      "name": "Bone_Stick",
      "rotation": [
        -6.743495646333031e-07,
        -6.743495646333031e-07,
        -0.7071068286895752,
        0.7071067094802856
      ],
      "scale": [
        9.999999747378752e-05,
        9.999999747378752e-05,
        9.999999747378752e-05
      ],
      "translation": [
        0.0,
        0.00011047362932004035,
        0.2825118899345398
      ]
    },
    {
      "mesh": 1,
      "name": "Prop_Axe01",
      "rotation": [
        -0.7071067690849304,
        -0.0,
        0.0,
        0.7071067690849304
      ],
      "skin": 1,
      "translation": [
        0.0,
        2.546182870864868,
        6.40914805671855e-08
      ]
    },
    {
      "mesh": 2,
      "name": "Wagon",
      "rotation": [
        -0.7071067690849304,
        -0.0,
        0.0,
        0.7071067690849304
      ],
      "skin": 2,
      "translation": [
        4.338845252990723,
        0.0,
        -2.933509588241577
      ]
    },
    {
      "mesh": 3,
      "name": "Hammer",
      "rotation": [
        -0.7071067690849304,
        -0.0,
        0.0,
        0.7071067690849304
      ],
      "skin": 3,
      "translation": [
        3.187052011489868,
        0.619330108165741,
        -3.0989797115325928
      ]
    },
    {
      "mesh": 4,
      "name": "crossbow001",
      "rotation": [
        -0.7071067690849304,
        -0.0,
        0.0,
        0.7071067690849304
      ],
      "skin": 4,
      "translation": [
        0.0,
        2.1129281520843506,
        0.3416856825351715
      ]
    },
    {
      "mesh": 5,
      "name": "crossbow002",
      "rotation": [
        -0.7071067690849304,
        -0.0,
        0.0,
        0.7071067690849304
      ],
      "skin": 5,
      "translation": [
        -2.1543982597904687e-08,
        1.167086124420166,
        0.49437370896339417
      ]
    }
  ],
  "scenes": [
    {
      "nodes": [
        0,
        1,
        40,
        41,
        42,
        43,
        44
      ]
    }
  ],
  "skins": [
    {
      "inverseBindMatrices": 6,
      "joints": [
        19,
        5,
        4,
        7,
        11,
        12,
        3,
        31,
        24,
        20,
        9,
        10,
        21,
        22,
        8,
        13,
        17,
        18,
        30,
        29,
        25,
        14,
        15,
        16,
        26,
        27,
        39
      ]
    },
    {
      "inverseBindMatrices": 14,
      "joints": [
        32
      ]
    },
    {
      "inverseBindMatrices": 22,
      "joints": [
        35,
        34,
        33
      ]
    },
    {
      "inverseBindMatrices": 30,
      "joints": [
        36
      ]
    },
    {
      "inverseBindMatrices": 37,
      "joints": [
        37
      ]
    },
    {
      "inverseBindMatrices": 44,
      "joints": [
        38
      ]
    }
  ]
}