{
  "accessors": [
    {
      "bufferView": 0,
      "componentType": 5126,
      "count": 1,
      "name": "Root/translation/Output",
      "type": "VEC3"
    },
    {
      "bufferView": 1,
      "componentType": 5126,
      "count": 1,
      "max": [
        0.6000000238418579
      ],
      "min": [
        0.6000000238418579
      ],
      "name": "Root/translation/Input",
      "type": "SCALAR"
    },
    {
      "bufferView": 2,
      "componentType": 5126,
      "count": 1,
      "name": "Root/rotation/Output",
      "type": "VEC4"
    },
    {
      "bufferView": 3,
      "componentType": 5126,
      "count": 1,
      "max": [
        0.6000000238418579
      ],
      "min": [
        0.6000000238418579
      ],
      "name": "Root/rotation/Input",
      "type": "SCALAR"
    },
    {
      "bufferView": 4,
      "componentType": 5126,
      "count": 1,
      "name": "Root/scale/Output",
      "type": "VEC3"
    },
    {
      "bufferView": 5,
      "componentType": 5126,
      "count": 1,
      "max": [
        0.6000000238418579
      ],
      "min": [
        0.6000000238418579
      ],
      "name": "Root/scale/Input",
      "type": "SCALAR"
    },
    {
      "bufferView": 6,
      "componentType": 5126,
      "count": 19,
      "name": "Bip001/translation/Output",
      "type": "VEC3"
    },
    {
      "bufferView": 7,
      "componentType": 5126,
      "count": 19,
      "max": [
        0.6000000238418579
      ],
      "min": [
        0.0
      ],
      "name": "Bip001/translation/Input",
      "type": "SCALAR"
    },
    {
      "bufferView": 8,
      "componentType": 5126,
      "count": 19,
      "name": "Bip001/rotation/Output",
      "type": "VEC4"
    },
    {
      "bufferView": 9,
      "componentType": 5126,
      "count": 19,
      "max": [
        0.6000000238418579
      ],
      "min": [
        0.0
      ],
      "name": "Bip001/rotation/Input",
      "type": "SCALAR"
    },
    {
      "bufferView": 10,
      "componentType": 5126,
      "count": 1,
      "name": "Bip001/scale/Output",
      "type": "VEC3"
    },
    {
      "bufferView": 11,
      "componentType": 5126,
      "count": 1,
      "max": [
        0.6000000238418579
      ],
      "min": [
        0.6000000238418579
      ],
      "name": "Bip001/scale/Input",
      "type": "SCALAR"
    },
    {
      "bufferView": 12,
      "componentType": 5126,
      "count": 1,
      "name": "Bip001 Pelvis/translation/Output",
      "type": "VEC3"
    },
    {
      "bufferView": 13,
      "componentType": 5126,
      "count": 1,
      "max": [
        0.6000000238418579
      ],
      "min": [
        0.6000000238418579
      ],
      "name": "Bip001 Pelvis/translation/Input",
      "type": "SCALAR"
    },
    {
      "bufferView": 14,
      "componentType": 5126,
      "count": 1,
      "name": "Bip001 Pelvis/rotation/Output",
      "type": "VEC4"
    },
    {
      "bufferView": 15,
      "componentType": 5126,
      "count": 1,
      "max": [
        0.6000000238418579
      ],
      "min": [
        0.6000000238418579
      ],
      "name": "Bip001 Pelvis/rotation/Input",
      "type": "SCALAR"
    },
    {
      "bufferView": 16,
      "componentType": 5126,
      "count": 1,
      "name": "Bip001 Pelvis/scale/Output",
      "type": "VEC3"
    },
    {
      "bufferView": 17,
      "componentType": 5126,
      "count": 1,
      "max": [
        0.6000000238418579
      ],
      "min": [
        0.6000000238418579
      ],
      "name": "Bip001 Pelvis/scale/Input",
      "type": "SCALAR"
    },
    {
      "bufferView": 18,
      "componentType": 5126,
      "count": 19,
      "name": "Bip001 Spine/translation/Output",
      "type": "VEC3"
    },
    {
      "bufferView": 19,
      "componentType": 5126,
      "count": 19,
      "max": [
        0.6000000238418579
      ],
      "min": [
        0.0
      ],
      "name": "Bip001 Spine/translation/Input",
      "type": "SCALAR"
    },
    {
      "bufferView": 20,
      "componentType": 5126,
      "count": 19,
      "name": "Bip001 Spine/rotation/Output",
      "type": "VEC4"
    },
    {
      "bufferView": 21,
      "componentType": 5126,
      "count": 19,
      "max": [
        0.6000000238418579
      ],
      "min": [
        0.0
      ],
      "name": "Bip001 Spine/rotation/Input",
      "type": "SCALAR"
    },
    {
      "bufferView": 22,
      "componentType": 5126,
      "count": 1,
      "name": "Bip001 Spine/scale/Output",
      "type": "VEC3"
    },
    {
      "bufferView": 23,
      "componentType": 5126,
      "count": 1,
      "max": [
        0.6000000238418579
      ],
      "min": [
        0.6000000238418579
      ],
      "name": "Bip001 Spine/scale/Input",
      "type": "SCALAR"
    },
    {
      "bufferView": 24,
      "componentType": 5126,
      "count": 19,
      "name": "Bip001 Spine1/translation/Output",
      "type": "VEC3"
    },
    {
      "bufferView": 25,
      "componentType": 5126,
      "count": 19,
      "max": [
        0.6000000238418579
      ],
      "min": [
        0.0
      ],
      "name": "Bip001 Spine1/translation/Input",
      "type": "SCALAR"
    },
    {
      "bufferView": 26,
      "componentType": 5126,
      "count": 19,
      "name": "Bip001 Spine1/rotation/Output",
      "type": "VEC4"
    },
    {
      "bufferView": 27,
      "componentType": 5126,
      "count": 19,
      "max": [
        0.6000000238418579
      ],
      "min": [
        0.0
      ],
      "name": "Bip001 Spine1/rotation/Input",
      "type": "SCALAR"
    },
    {
      "bufferView": 28,
      "componentType": 5126,
      "count": 1,
      "name": "Bip001 Spine1/scale/Output",
      "type": "VEC3"
    },
    {
      "bufferView": 29,
      "componentType": 5126,
      "count": 1,
      "max": [
        0.6000000238418579
      ],
      "min": [
        0.6000000238418579
      ],
      "name": "Bip001 Spine1/scale/Input",
      "type": "SCALAR"
    },
    {
      "bufferView": 30,
      "componentType": 5126,
      "count": 5,
      "name": "Bip001 Neck/translation/Output",
      "type": "VEC3"
    },
    {
      "bufferView": 31,
      "componentType": 5126,
      "count": 5,
      "max": [
        0.6000000238418579
      ],
      "min": [
        0.10000000149011612
      ],
      "name": "Bip001 Neck/translation/Input",
      "type": "SCALAR"
    },
    {
      "bufferView": 32,
      "componentType": 5126,
      "count": 1,
      "name": "Bip001 Neck/rotation/Output",
      "type": "VEC4"
    },
    {
      "bufferView": 33,
      "componentType": 5126,
      "count": 1,
      "max": [
        0.6000000238418579
      ],
      "min": [
        0.6000000238418579
      ],
      "name": "Bip001 Neck/rotation/Input",
      "type": "SCALAR"
    },
    {
      "bufferView": 34,
      "componentType": 5126,
      "count": 1,
      "name": "Bip001 Neck/scale/Output",
      "type": "VEC3"
    },
    {
      "bufferView": 35,
      "componentType": 5126,
      "count": 1,
      "max": [
        0.6000000238418579
      ],
      "min": [
        0.6000000238418579
      ],
      "name": "Bip001 Neck/scale/Input",
      "type": "SCALAR"
    },
    {
      "bufferView": 36,
      "componentType": 5126,
      "count": 5,
      "name": "Bip001 L Clavicle/translation/Output",
      "type": "VEC3"
    },
    {
      "bufferView": 37,
      "componentType": 5126,
      "count": 5,
      "max": [
        0.6000000238418579
      ],
      "min": [
        0.06666667014360428
      ],
      "name": "Bip001 L Clavicle/translation/Input",
      "type": "SCALAR"
    },
    {
      "bufferView": 38,
      "componentType": 5126,
      "count": 18,
      "name": "Bip001 L Clavicle/rotation/Output",
      "type": "VEC4"
    },
    {
      "bufferView": 39,
      "componentType": 5126,
      "count": 18,
      "max": [
        0.6000000238418579
      ],
      "min": [
        0.0
      ],
      "name": "Bip001 L Clavicle/rotation/Input",
      "type": "SCALAR"
    },
    {
      "bufferView": 40,
      "componentType": 5126,
      "count": 1,
      "name": "Bip001 L Clavicle/scale/Output",
      "type": "VEC3"
    },
    {
      "bufferView": 41,
      "componentType": 5126,
      "count": 1,
      "max": [
        0.6000000238418579
      ],
      "min": [
        0.6000000238418579
      ],
      "name": "Bip001 L Clavicle/scale/Input",
      "type": "SCALAR"
    },
    {
      "bufferView": 42,
      "componentType": 5126,
      "count": 1,
      "name": "Bip001 L UpperArm/translation/Output",
      "type": "VEC3"
    },
    {
      "bufferView": 43,
      "componentType": 5126,
      "count": 1,
      "max": [
        0.6000000238418579
      ],
      "min": [
        0.6000000238418579
      ],
      "name": "Bip001 L UpperArm/translation/Input",
      "type": "SCALAR"
    },
    {
      "bufferView": 44,
      "componentType": 5126,
      "count": 19,
      "name": "Bip001 L UpperArm/rotation/Output",
      "type": "VEC4"
    },
    {
      "bufferView": 45,
      "componentType": 5126,
      "count": 19,
      "max": [
        0.6000000238418579
      ],
      "min": [
        0.0
      ],
      "name": "Bip001 L UpperArm/rotation/Input",
      "type": "SCALAR"
    },
    {
      "bufferView": 46,
      "componentType": 5126,
      "count": 1,
      "name": "Bip001 L UpperArm/scale/Output",
      "type": "VEC3"
    },
    {
      "bufferView": 47,
      "componentType": 5126,
      "count": 1,
      "max": [
        0.6000000238418579
      ],
      "min": [
        0.6000000238418579
      ],
      "name": "Bip001 L UpperArm/scale/Input",
      "type": "SCALAR"
    },
    {
      "bufferView": 48,
      "componentType": 5126,
      "count": 1,
      "name": "Bip001 L Forearm/translation/Output",
      "type": "VEC3"
    },
    {
      "bufferView": 49,
      "componentType": 5126,
      "count": 1,
      "max": [
        0.6000000238418579
      ],
      "min": [
        0.6000000238418579
      ],
      "name": "Bip001 L Forearm/translation/Input",
      "type": "SCALAR"
    },
    {
      "bufferView": 50,
      "componentType": 5126,
      "count": 19,
      "name": "Bip001 L Forearm/rotation/Output",
      "type": "VEC4"
    },
    {
      "bufferView": 51,
      "componentType": 5126,
      "count": 19,
      "max": [
        0.6000000238418579
      ],
      "min": [
        0.0
      ],
      "name": "Bip001 L Forearm/rotation/Input",
      "type": "SCALAR"
    },
    {
      "bufferView": 52,
      "componentType": 5126,
      "count": 1,
      "name": "Bip001 L Forearm/scale/Output",
      "type": "VEC3"
    },
    {
      "bufferView": 53,
      "componentType": 5126,
      "count": 1,
      "max": [
        0.6000000238418579
      ],
      "min": [
        0.6000000238418579
      ],
      "name": "Bip001 L Forearm/scale/Input",
      "type": "SCALAR"
    },
    {
      "bufferView": 54,
      "componentType": 5126,
      "count": 5,
      "name": "Bip001 L Hand/translation/Output",
      "type": "VEC3"
    },
    {
      "bufferView": 55,
      "componentType": 5126,
      "count": 5,
      "max": [
        0.6000000238418579
      ],
      "min": [
        0.13333334028720856
      ],
      "name": "Bip001 L Hand/translation/Input",
      "type": "SCALAR"
    },
    {
      "bufferView": 56,
      "componentType": 5126,
      "count": 19,
      "name": "Bip001 L Hand/rotation/Output",
      "type": "VEC4"
    },
    {
      "bufferView": 57,
      "componentType": 5126,
      "count": 19,
      "max": [
        0.6000000238418579
      ],
      "min": [
        0.0
      ],
      "name": "Bip001 L Hand/rotation/Input",
      "type": "SCALAR"
    },
    {
      "bufferView": 58,
      "componentType": 5126,
      "count": 1,
      "name": "Bip001 L Hand/scale/Output",
      "type": "VEC3"
    },
    {
      "bufferView": 59,
      "componentType": 5126,
      "count": 1,
      "max": [
        0.6000000238418579
      ],
      "min": [
        0.6000000238418579
      ],
      "name": "Bip001 L Hand/scale/Input",
      "type": "SCALAR"
    },
    {
      "bufferView": 60,
      "componentType": 5126,
      "count": 2,
      "name": "Bone L UpperArm Twist/translation/Output",
      "type": "VEC3"
    },
    {
      "bufferView": 61,
      "componentType": 5126,
      "count": 2,
      "max": [
        0.46666666865348816
      ],
      "min": [
        0.4333333373069763
      ],
      "name": "Bone L UpperArm Twist/translation/Input",
      "type": "SCALAR"
    },
    {
      "bufferView": 62,
      "componentType": 5126,
      "count": 19,
      "name": "Bone L UpperArm Twist/rotation/Output",
      "type": "VEC4"
    },
    {
      "bufferView": 63,
      "componentType": 5126,
      "count": 19,
      "max": [
        0.6000000238418579
      ],
      "min": [
        0.0
      ],
      "name": "Bone L UpperArm Twist/rotation/Input",
      "type": "SCALAR"
    },
    {
      "bufferView": 64,
      "componentType": 5126,
      "count": 1,
      "name": "Bone L UpperArm Twist/scale/Output",
      "type": "VEC3"
    },
    {
      "bufferView": 65,
      "componentType": 5126,
      "count": 1,
      "max": [
        0.6000000238418579
      ],
      "min": [
        0.6000000238418579
      ],
      "name": "Bone L UpperArm Twist/scale/Input",
      "type": "SCALAR"
    },
    {
      "bufferView": 66,
      "componentType": 5126,
      "count": 1,
      "name": "Bone L UpperArm Twist1/translation/Output",
      "type": "VEC3"
    },
    {
      "bufferView": 67,
      "componentType": 5126,
      "count": 1,
      "max": [
        0.6000000238418579
      ],
      "min": [
        0.6000000238418579
      ],
      "name": "Bone L UpperArm Twist1/translation/Input",
      "type": "SCALAR"
    },
    {
      "bufferView": 68,
      "componentType": 5126,
      "count": 18,
      "name": "Bone L UpperArm Twist1/rotation/Output",
      "type": "VEC4"
    },
    {
      "bufferView": 69,
      "componentType": 5126,
      "count": 18,
      "max": [
        0.6000000238418579
      ],
      "min": [
        0.0
      ],
      "name": "Bone L UpperArm Twist1/rotation/Input",
      "type": "SCALAR"
    },
    {
      "bufferView": 70,
      "componentType": 5126,
      "count": 1,
      "name": "Bone L UpperArm Twist1/scale/Output",
      "type": "VEC3"
    },
    {
      "bufferView": 71,
      "componentType": 5126,
      "count": 1,
      "max": [
        0.6000000238418579
      ],
      "min": [
        0.6000000238418579
      ],
      "name": "Bone L UpperArm Twist1/scale/Input",
      "type": "SCALAR"
    },
    {
      "bufferView": 72,
      "componentType": 5126,
      "count": 4,
      "name": "Bip001 R Clavicle/translation/Output",
      "type": "VEC3"
    },
    {
      "bufferView": 73,
      "componentType": 5126,
      "count": 4,
      "max": [
        0.6000000238418579
      ],
      "min": [
        0.03333333507180214
      ],
      "name": "Bip001 R Clavicle/translation/Input",
      "type": "SCALAR"
    },
    {
      "bufferView": 74,
      "componentType": 5126,
      "count": 19,
      "name": "Bip001 R Clavicle/rotation/Output",
      "type": "VEC4"
    },
    {
      "bufferView": 75,
      "componentType": 5126,
      "count": 19,
      "max": [
        0.6000000238418579
      ],
      "min": [
        0.0
      ],
      "name": "Bip001 R Clavicle/rotation/Input",
      "type": "SCALAR"
    },
    {
      "bufferView": 76,
      "componentType": 5126,
      "count": 1,
      "name": "Bip001 R Clavicle/scale/Output",
      "type": "VEC3"
    },
    {
      "bufferView": 77,
      "componentType": 5126,
      "count": 1,
      "max": [
        0.6000000238418579
      ],
      "min": [
        0.6000000238418579
      ],
      "name": "Bip001 R Clavicle/scale/Input",
      "type": "SCALAR"
    },
    {
      "bufferView": 78,
      "componentType": 5126,
      "count": 1,
      "name": "Bip001 R UpperArm/translation/Output",
      "type": "VEC3"
    },
    {
      "bufferView": 79,
      "componentType": 5126,
      "count": 1,
      "max": [
        0.6000000238418579
      ],
      "min": [
        0.6000000238418579
      ],
      "name": "Bip001 R UpperArm/translation/Input",
      "type": "SCALAR"
    },
    {
      "bufferView": 80,
      "componentType": 5126,
      "count": 19,
      "name": "Bip001 R UpperArm/rotation/Output",
      "type": "VEC4"
    },
    {
      "bufferView": 81,
      "componentType": 5126,
      "count": 19,
      "max": [
        0.6000000238418579
      ],
      "min": [
        0.0
      ],
      "name": "Bip001 R UpperArm/rotation/Input",
      "type": "SCALAR"
    },
    {
      "bufferView": 82,
      "componentType": 5126,
      "count": 1,
      "name": "Bip001 R UpperArm/scale/Output",
      "type": "VEC3"
    },
    {
      "bufferView": 83,
      "componentType": 5126,
      "count": 1,
      "max": [
        0.6000000238418579
      ],
      "min": [
        0.6000000238418579
      ],
      "name": "Bip001 R UpperArm/scale/Input",
      "type": "SCALAR"
    },
    {
      "bufferView": 84,
      "componentType": 5126,
      "count": 4,
      "name": "Bip001 R Forearm/translation/Output",
      "type": "VEC3"
    },
    {
      "bufferView": 85,
      "componentType": 5126,
      "count": 4,
      "max": [
        0.46666666865348816
      ],
      "min": [
        0.0
      ],
      "name": "Bip001 R Forearm/translation/Input",
      "type": "SCALAR"
    },
    {
      "bufferView": 86,
      "componentType": 5126,
      "count": 19,
      "name": "Bip001 R Forearm/rotation/Output",
      "type": "VEC4"
    },
    {
      "bufferView": 87,
      "componentType": 5126,
      "count": 19,
      "max": [
        0.6000000238418579
      ],
      "min": [
        0.0
      ],
      "name": "Bip001 R Forearm/rotation/Input",
      "type": "SCALAR"
    },
    {
      "bufferView": 88,
      "componentType": 5126,
      "count": 1,
      "name": "Bip001 R Forearm/scale/Output",
      "type": "VEC3"
    },
    {
      "bufferView": 89,
      "componentType": 5126,
      "count": 1,
      "max": [
        0.6000000238418579
      ],
      "min": [
        0.6000000238418579
      ],
      "name": "Bip001 R Forearm/scale/Input",
      "type": "SCALAR"
    },
    {
      "bufferView": 90,
      "componentType": 5126,
      "count": 4,
      "name": "Bip001 R Hand/translation/Output",
      "type": "VEC3"
    },
    {
      "bufferView": 91,
      "componentType": 5126,
      "count": 4,
      "max": [
        0.5666666626930237
      ],
      "min": [
        0.0
      ],
      "name": "Bip001 R Hand/translation/Input",
      "type": "SCALAR"
    },
    {
      "bufferView": 92,
      "componentType": 5126,
      "count": 19,
      "name": "Bip001 R Hand/rotation/Output",
      "type": "VEC4"
    },
    {
      "bufferView": 93,
      "componentType": 5126,
      "count": 19,
      "max": [
        0.6000000238418579
      ],
      "min": [
        0.0
      ],
      "name": "Bip001 R Hand/rotation/Input",
      "type": "SCALAR"
    },
    {
      "bufferView": 94,
      "componentType": 5126,
      "count": 1,
      "name": "Bip001 R Hand/scale/Output",
      "type": "VEC3"
    },
    {
      "bufferView": 95,
      "componentType": 5126,
      "count": 1,
      "max": [
        0.6000000238418579
      ],
      "min": [
        0.6000000238418579
      ],
      "name": "Bip001 R Hand/scale/Input",
      "type": "SCALAR"
    },
    {
      "bufferView": 96,
      "componentType": 5126,
      "count": 1,
      "name": "Bone R UpperArm Twist/translation/Output",
      "type": "VEC3"
    },
    {
      "bufferView": 97,
      "componentType": 5126,
      "count": 1,
      "max": [
        0.6000000238418579
      ],
      "min": [
        0.6000000238418579
      ],
      "name": "Bone R UpperArm Twist/translation/Input",
      "type": "SCALAR"
    },
    {
      "bufferView": 98,
      "componentType": 5126,
      "count": 19,
      "name": "Bone R UpperArm Twist/rotation/Output",
      "type": "VEC4"
    },
    {
      "bufferView": 99,
      "componentType": 5126,
      "count": 19,
      "max": [
        0.6000000238418579
      ],
      "min": [
        0.0
      ],
      "name": "Bone R UpperArm Twist/rotation/Input",
      "type": "SCALAR"
    },
    {
      "bufferView": 100,
      "componentType": 5126,
      "count": 1,
      "name": "Bone R UpperArm Twist/scale/Output",
      "type": "VEC3"
    },
    {
      "bufferView": 101,
      "componentType": 5126,
      "count": 1,
      "max": [
        0.6000000238418579
      ],
      "min": [
        0.6000000238418579
      ],
      "name": "Bone R UpperArm Twist/scale/Input",
      "type": "SCALAR"
    },
    {
      "bufferView": 102,
      "componentType": 5126,
      "count": 1,
      "name": "Bone R UpperArm Twist1/translation/Output",
      "type": "VEC3"
    },
    {
      "bufferView": 103,
      "componentType": 5126,
      "count": 1,
      "max": [
        0.6000000238418579
      ],
      "min": [
        0.6000000238418579
      ],
      "name": "Bone R UpperArm Twist1/translation/Input",
      "type": "SCALAR"
    },
    {
      "bufferView": 104,
      "componentType": 5126,
      "count": 19,
      "name": "Bone R UpperArm Twist1/rotation/Output",
      "type": "VEC4"
    },
    {
      "bufferView": 105,
      "componentType": 5126,
      "count": 19,
      "max": [
        0.6000000238418579
      ],
      "min": [
        0.0
      ],
      "name": "Bone R UpperArm Twist1/rotation/Input",
      "type": "SCALAR"
    },
    {
      "bufferView": 106,
      "componentType": 5126,
      "count": 1,
      "name": "Bone R UpperArm Twist1/scale/Output",
      "type": "VEC3"
    },
    {
      "bufferView": 107,
      "componentType": 5126,
      "count": 1,
      "max": [
        0.6000000238418579
      ],
      "min": [
        0.6000000238418579
      ],
      "name": "Bone R UpperArm Twist1/scale/Input",
      "type": "SCALAR"
    },
    {
      "bufferView": 108,
      "componentType": 5126,
      "count": 1,
      "name": "Bip001 Head/translation/Output",
      "type": "VEC3"
    },
    {
      "bufferView": 109,
      "componentType": 5126,
      "count": 1,
      "max": [
        0.6000000238418579
      ],
      "min": [
        0.6000000238418579
      ],
      "name": "Bip001 Head/translation/Input",
      "type": "SCALAR"
    },
    {
      "bufferView": 110,
      "componentType": 5126,
      "count": 19,
      "name": "Bip001 Head/rotation/Output",
      "type": "VEC4"
    },
    {
      "bufferView": 111,
      "componentType": 5126,
      "count": 19,
      "max": [
        0.6000000238418579
      ],
      "min": [
        0.0
      ],
      "name": "Bip001 Head/rotation/Input",
      "type": "SCALAR"
    },
    {
      "bufferView": 112,
      "componentType": 5126,
      "count": 1,
      "name": "Bip001 Head/scale/Output",
      "type": "VEC3"
    },
    {
      "bufferView": 113,
      "componentType": 5126,
      "count": 1,
      "max": [
        0.6000000238418579
      ],
      "min": [
        0.6000000238418579
      ],
      "name": "Bip001 Head/scale/Input",
      "type": "SCALAR"
    },
    {
      "bufferView": 114,
      "componentType": 5126,
      "count": 1,
      "name": "Bip001 L Thigh/translation/Output",
      "type": "VEC3"
    },
    {
      "bufferView": 115,
      "componentType": 5126,
      "count": 1,
      "max": [
        0.6000000238418579
      ],
      "min": [
        0.6000000238418579
      ],
      "name": "Bip001 L Thigh/translation/Input",
      "type": "SCALAR"
    },
    {
      "bufferView": 116,
      "componentType": 5126,
      "count": 19,
      "name": "Bip001 L Thigh/rotation/Output",
      "type": "VEC4"
    },
    {
      "bufferView": 117,
      "componentType": 5126,
      "count": 19,
      "max": [
        0.6000000238418579
      ],
      "min": [
        0.0
      ],
      "name": "Bip001 L Thigh/rotation/Input",
      "type": "SCALAR"
    },
    {
      "bufferView": 118,
      "componentType": 5126,
      "count": 1,
      "name": "Bip001 L Thigh/scale/Output",
      "type": "VEC3"
    },
    {
      "bufferView": 119,
      "componentType": 5126,
      "count": 1,
      "max": [
        0.6000000238418579
      ],
      "min": [
        0.6000000238418579
      ],
      "name": "Bip001 L Thigh/scale/Input",
      "type": "SCALAR"
    },
    {
      "bufferView": 120,
      "componentType": 5126,
      "count": 1,
      "name": "Bip001 L Calf/translation/Output",
      "type": "VEC3"
    },
    {
      "bufferView": 121,
      "componentType": 5126,
      "count": 1,
      "max": [
        0.6000000238418579
      ],
      "min": [
        0.6000000238418579
      ],
      "name": "Bip001 L Calf/translation/Input",
      "type": "SCALAR"
    },
    {
      "bufferView": 122,
      "componentType": 5126,
      "count": 19,
      "name": "Bip001 L Calf/rotation/Output",
      "type": "VEC4"
    },
    {
      "bufferView": 123,
      "componentType": 5126,
      "count": 19,
      "max": [
        0.6000000238418579
      ],
      "min": [
        0.0
      ],
      "name": "Bip001 L Calf/rotation/Input",
      "type": "SCALAR"
    },
    {
      "bufferView": 124,
      "componentType": 5126,
      "count": 1,
      "name": "Bip001 L Calf/scale/Output",
      "type": "VEC3"
    },
    {
      "bufferView": 125,
      "componentType": 5126,
      "count": 1,
      "max": [
        0.6000000238418579
      ],
      "min": [
        0.6000000238418579
      ],
      "name": "Bip001 L Calf/scale/Input",
      "type": "SCALAR"
    },
    {
      "bufferView": 126,
      "componentType": 5126,
      "count": 1,
      "name": "Bip001 L Foot/translation/Output",
      "type": "VEC3"
    },
    {
      "bufferView": 127,
      "componentType": 5126,
      "count": 1,
      "max": [
        0.6000000238418579
      ],
      "min": [
        0.6000000238418579
      ],
      "name": "Bip001 L Foot/translation/Input",
      "type": "SCALAR"
    },
    {
      "bufferView": 128,
      "componentType": 5126,
      "count": 19,
      "name": "Bip001 L Foot/rotation/Output",
      "type": "VEC4"
    },
    {
      "bufferView": 129,
      "componentType": 5126,
      "count": 19,
      "max": [
        0.6000000238418579
      ],
      "min": [
        0.0
      ],
      "name": "Bip001 L Foot/rotation/Input",
      "type": "SCALAR"
    },
    {
      "bufferView": 130,
      "componentType": 5126,
      "count": 1,
      "name": "Bip001 L Foot/scale/Output",
      "type": "VEC3"
    },
    {
      "bufferView": 131,
      "componentType": 5126,
      "count": 1,
      "max": [
        0.6000000238418579
      ],
      "min": [
        0.6000000238418579
      ],
      "name": "Bip001 L Foot/scale/Input",
      "type": "SCALAR"
    },
    {
      "bufferView": 132,
      "componentType": 5126,
      "count": 1,
      "name": "Bone L Thigh Twist/translation/Output",
      "type": "VEC3"
    },
    {
      "bufferView": 133,
      "componentType": 5126,
      "count": 1,
      "max": [
        0.6000000238418579
      ],
      "min": [
        0.6000000238418579
      ],
      "name": "Bone L Thigh Twist/translation/Input",
      "type": "SCALAR"
    },
    {
      "bufferView": 134,
      "componentType": 5126,
      "count": 19,
      "name": "Bone L Thigh Twist/rotation/Output",
      "type": "VEC4"
    },
    {
      "bufferView": 135,
      "componentType": 5126,
      "count": 19,
      "max": [
        0.6000000238418579
      ],
      "min": [
        0.0
      ],
      "name": "Bone L Thigh Twist/rotation/Input",
      "type": "SCALAR"
    },
    {
      "bufferView": 136,
      "componentType": 5126,
      "count": 1,
      "name": "Bone L Thigh Twist/scale/Output",
      "type": "VEC3"
    },
    {
      "bufferView": 137,
      "componentType": 5126,
      "count": 1,
      "max": [
        0.6000000238418579
      ],
      "min": [
        0.6000000238418579
      ],
      "name": "Bone L Thigh Twist/scale/Input",
      "type": "SCALAR"
    },
    {
      "bufferView": 138,
      "componentType": 5126,
      "count": 1,
      "name": "Bip001 R Thigh/translation/Output",
      "type": "VEC3"
    },
    {
      "bufferView": 139,
      "componentType": 5126,
      "count": 1,
      "max": [
        0.6000000238418579
      ],
      "min": [
        0.6000000238418579
      ],
      "name": "Bip001 R Thigh/translation/Input",
      "type": "SCALAR"
    },
    {
      "bufferView": 140,
      "componentType": 5126,
      "count": 19,
      "name": "Bip001 R Thigh/rotation/Output",
      "type": "VEC4"
    },
    {
      "bufferView": 141,
      "componentType": 5126,
      "count": 19,
      "max": [
        0.6000000238418579
      ],
      "min": [
        0.0
      ],
      "name": "Bip001 R Thigh/rotation/Input",
      "type": "SCALAR"
    },
    {
      "bufferView": 142,
      "componentType": 5126,
      "count": 1,
      "name": "Bip001 R Thigh/scale/Output",
      "type": "VEC3"
    },
    {
      "bufferView": 143,
      "componentType": 5126,
      "count": 1,
      "max": [
        0.6000000238418579
      ],
      "min": [
        0.6000000238418579
      ],
      "name": "Bip001 R Thigh/scale/Input",
      "type": "SCALAR"
    },
    {
      "bufferView": 144,
      "componentType": 5126,
      "count": 1,
      "name": "Bip001 R Calf/translation/Output",
      "type": "VEC3"
    },
    {
      "bufferView": 145,
      "componentType": 5126,
      "count": 1,
      "max": [
        0.6000000238418579
      ],
      "min": [
        0.6000000238418579
      ],
      "name": "Bip001 R Calf/translation/Input",
      "type": "SCALAR"
    },
    {
      "bufferView": 146,
      "componentType": 5126,
      "count": 19,
      "name": "Bip001 R Calf/rotation/Output",
      "type": "VEC4"
    },
    {
      "bufferView": 147,
      "componentType": 5126,
      "count": 19,
      "max": [
        0.6000000238418579
      ],
      "min": [
        0.0
      ],
      "name": "Bip001 R Calf/rotation/Input",
      "type": "SCALAR"
    },
    {
      "bufferView": 148,
      "componentType": 5126,
      "count": 1,
      "name": "Bip001 R Calf/scale/Output",
      "type": "VEC3"
    },
    {
      "bufferView": 149,
      "componentType": 5126,
      "count": 1,
      "max": [
        0.6000000238418579
      ],
      "min": [
        0.6000000238418579
      ],
      "name": "Bip001 R Calf/scale/Input",
      "type": "SCALAR"
    },
    {
      "bufferView": 150,
      "componentType": 5126,
      "count": 1,
      "name": "Bip001 R Foot/translation/Output",
      "type": "VEC3"
    },
    {
      "bufferView": 151,
      "componentType": 5126,
      "count": 1,
      "max": [
        0.6000000238418579
      ],
      "min": [
        0.6000000238418579
      ],
      "name": "Bip001 R Foot/translation/Input",
      "type": "SCALAR"
    },
    {
      "bufferView": 152,
      "componentType": 5126,
      "count": 19,
      "name": "Bip001 R Foot/rotation/Output",
      "type": "VEC4"
    },
    {
      "bufferView": 153,
      "componentType": 5126,
      "count": 19,
      "max": [
        0.6000000238418579
      ],
      "min": [
        0.0
      ],
      "name": "Bip001 R Foot/rotation/Input",
      "type": "SCALAR"
    },
    {
      "bufferView": 154,
      "componentType": 5126,
      "count": 1,
      "name": "Bip001 R Foot/scale/Output",
      "type": "VEC3"
    },
    {
      "bufferView": 155,
      "componentType": 5126,
      "count": 1,
      "max": [
        0.6000000238418579
      ],
      "min": [
        0.6000000238418579
      ],
      "name": "Bip001 R Foot/scale/Input",
      "type": "SCALAR"
    },
    {
      "bufferView": 156,
      "componentType": 5126,
      "count": 1,
      "name": "Bone R Thigh Twist/translation/Output",
      "type": "VEC3"
    },
    {
      "bufferView": 157,
      "componentType": 5126,
      "count": 1,
      "max": [
        0.6000000238418579
      ],
      "min": [
        0.6000000238418579
      ],
      "name": "Bone R Thigh Twist/translation/Input",
      "type": "SCALAR"
    },
    {
      "bufferView": 158,
      "componentType": 5126,
      "count": 19,
      "name": "Bone R Thigh Twist/rotation/Output",
      "type": "VEC4"
    },
    {
      "bufferView": 159,
      "componentType": 5126,
      "count": 19,
      "max": [
        0.6000000238418579
      ],
      "min": [
        0.0
      ],
      "name": "Bone R Thigh Twist/rotation/Input",
      "type": "SCALAR"
    },
    {
      "bufferView": 160,
      "componentType": 5126,
      "count": 1,
      "name": "Bone R Thigh Twist/scale/Output",
      "type": "VEC3"
    },
    {
      "bufferView": 161,
      "componentType": 5126,
      "count": 1,
      "max": [
        0.6000000238418579
      ],
      "min": [
        0.6000000238418579
      ],
      "name": "Bone R Thigh Twist/scale/Input",
      "type": "SCALAR"
    },
    {
      "bufferView": 162,
      "componentType": 5126,
      "count": 1,
      "name": "Bip001_B_R Hip/translation/Output",
      "type": "VEC3"
    },
    {
      "bufferView": 163,
      "componentType": 5126,
      "count": 1,
      "max": [
        0.6000000238418579
      ],
      "min": [
        0.6000000238418579
      ],
      "name": "Bip001_B_R Hip/translation/Input",
      "type": "SCALAR"
    },
    {
      "bufferView": 164,
      "componentType": 5126,
      "count": 1,
      "name": "Bip001_B_R Hip/rotation/Output",
      "type": "VEC4"
    },
    {
      "bufferView": 165,
      "componentType": 5126,
      "count": 1,
      "max": [
        0.6000000238418579
      ],
      "min": [
        0.6000000238418579
      ],
      "name": "Bip001_B_R Hip/rotation/Input",
      "type": "SCALAR"
    },
    {
      "bufferView": 166,
      "componentType": 5126,
      "count": 1,
      "name": "Bip001_B_R Hip/scale/Output",
      "type": "VEC3"
    },
    {
      "bufferView": 167,
      "componentType": 5126,
      "count": 1,
      "max": [
        0.6000000238418579
      ],
      "min": [
        0.6000000238418579
      ],
      "name": "Bip001_B_R Hip/scale/Input",
      "type": "SCALAR"
    },
    {
      "bufferView": 168,
      "componentType": 5126,
      "count": 1,
      "name": "Bip001_B_L Hip/translation/Output",
      "type": "VEC3"
    },
    {
      "bufferView": 169,
      "componentType": 5126,
      "count": 1,
      "max": [
        0.6000000238418579
      ],
      "min": [
        0.6000000238418579
      ],
      "name": "Bip001_B_L Hip/translation/Input",
      "type": "SCALAR"
    },
    {
      "bufferView": 170,
      "componentType": 5126,
      "count": 1,
      "name": "Bip001_B_L Hip/rotation/Output",
      "type": "VEC4"
    },
    {
      "bufferView": 171,
      "componentType": 5126,
      "count": 1,
      "max": [
        0.6000000238418579
      ],
      "min": [
        0.6000000238418579
      ],
      "name": "Bip001_B_L Hip/rotation/Input",
      "type": "SCALAR"
    },
    {
      "bufferView": 172,
      "componentType": 5126,
      "count": 1,
      "name": "Bip001_B_L Hip/scale/Output",
      "type": "VEC3"
    },
    {
      "bufferView": 173,
      "componentType": 5126,
      "count": 1,
      "max": [
        0.6000000238418579
      ],
      "min": [
        0.6000000238418579
      ],
      "name": "Bip001_B_L Hip/scale/Input",
      "type": "SCALAR"
    },
    {
      "bufferView": 174,
      "componentType": 5126,
      "count": 19,
      "name": "Bone_CrossBow/translation/Output",
      "type": "VEC3"
    },
    {
      "bufferView": 175,
      "componentType": 5126,
      "count": 19,
      "max": [
        0.6000000238418579
      ],
      "min": [
        0.0
      ],
      "name": "Bone_CrossBow/translation/Input",
      "type": "SCALAR"
    },
    {
      "bufferView": 176,
      "componentType": 5126,
      "count": 19,
      "name": "Bone_CrossBow/rotation/Output",
      "type": "VEC4"
    },
    {
      "bufferView": 177,
      "componentType": 5126,
      "count": 19,
      "max": [
        0.6000000238418579
      ],
      "min": [
        0.0
      ],
      "name": "Bone_CrossBow/rotation/Input",
      "type": "SCALAR"
    },
    {
      "bufferView": 178,
      "componentType": 5126,
      "count": 1,
      "name": "Bone_CrossBow/scale/Output",
      "type": "VEC3"
    },
    {
      "bufferView": 179,
      "componentType": 5126,
      "count": 1,
      "max": [
        0.6000000238418579
      ],
      "min": [
        0.6000000238418579
      ],
      "name": "Bone_CrossBow/scale/Input",
      "type": "SCALAR"
    }
  ],
  "animations": [
    {
      "channels": [
        {
          "sampler": 0,
          "target": {
            "node": 0,
            "path": "translation"
          }
        },
        {
          "sampler": 1,
          "target": {
            "node": 0,
            "path": "rotation"
          }
        },
        {
          "sampler": 2,
          "target": {
            "node": 0,
            "path": "scale"
          }
        },
        {
          "sampler": 3,
          "target": {
            "node": 1,
            "path": "translation"
          }
        },
        {
          "sampler": 4,
          "target": {
            "node": 1,
            "path": "rotation"
          }
        },
        {
          "sampler": 5,
          "target": {
            "node": 1,
            "path": "scale"
          }
        },
        {
          "sampler": 6,
          "target": {
            "node": 2,
            "path": "translation"
          }
        },
        {
          "sampler": 7,
          "target": {
            "node": 2,
            "path": "rotation"
          }
        },
        {
          "sampler": 8,
          "target": {
            "node": 2,
            "path": "scale"
          }
        },
        {
          "sampler": 9,
          "target": {
            "node": 3,
            "path": "translation"
          }
        },
        {
          "sampler": 10,
          "target": {
            "node": 3,
            "path": "rotation"
          }
        },
        {
          "sampler": 11,
          "target": {
            "node": 3,
            "path": "scale"
          }
        },
        {
          "sampler": 12,
          "target": {
            "node": 4,
            "path": "translation"
          }
        },
        {
          "sampler": 13,
          "target": {
            "node": 4,
            "path": "rotation"
          }
        },
        {
          "sampler": 14,
          "target": {
            "node": 4,
            "path": "scale"
          }
        },
        {
          "sampler": 15,
          "target": {
            "node": 5,
            "path": "translation"
          }
        },
        {
          "sampler": 16,
          "target": {
            "node": 5,
            "path": "rotation"
          }
        },
        {
          "sampler": 17,
          "target": {
            "node": 5,
            "path": "scale"
          }
        },
        {
          "sampler": 18,
          "target": {
            "node": 6,
            "path": "translation"
          }
        },
        {
          "sampler": 19,
          "target": {
            "node": 6,
            "path": "rotation"
          }
        },
        {
          "sampler": 20,
          "target": {
            "node": 6,
            "path": "scale"
          }
        },
        {
          "sampler": 21,
          "target": {
            "node": 7,
            "path": "translation"
          }
        },
        {
          "sampler": 22,
          "target": {
            "node": 7,
            "path": "rotation"
          }
        },
        {
          "sampler": 23,
          "target": {
            "node": 7,
            "path": "scale"
          }
        },
        {
          "sampler": 24,
          "target": {
            "node": 8,
            "path": "translation"
          }
        },
        {
          "sampler": 25,
          "target": {
            "node": 8,
            "path": "rotation"
          }
        },
        {
          "sampler": 26,
          "target": {
            "node": 8,
            "path": "scale"
          }
        },
        {
          "sampler": 27,
          "target": {
            "node": 9,
            "path": "translation"
          }
        },
        {
          "sampler": 28,
          "target": {
            "node": 9,
            "path": "rotation"
          }
        },
        {
          "sampler": 29,
          "target": {
            "node": 9,
            "path": "scale"
          }
        },
        {
          "sampler": 30,
          "target": {
            "node": 10,
            "path": "translation"
          }
        },
        {
          "sampler": 31,
          "target": {
            "node": 10,
            "path": "rotation"
          }
        },
        {
          "sampler": 32,
          "target": {
            "node": 10,
            "path": "scale"
          }
        },
        {
          "sampler": 33,
          "target": {
            "node": 11,
            "path": "translation"
          }
        },
        {
          "sampler": 34,
          "target": {
            "node": 11,
            "path": "rotation"
          }
        },
        {
          "sampler": 35,
          "target": {
            "node": 11,
            "path": "scale"
          }
        },
        {
          "sampler": 36,
          "target": {
            "node": 12,
            "path": "translation"
          }
        },
        {
          "sampler": 37,
          "target": {
            "node": 12,
            "path": "rotation"
          }
        },
        {
          "sampler": 38,
          "target": {
            "node": 12,
            "path": "scale"
          }
        },
        {
          "sampler": 39,
          "target": {
            "node": 13,
            "path": "translation"
          }
        },
        {
          "sampler": 40,
          "target": {
            "node": 13,
            "path": "rotation"
          }
        },
        {
          "sampler": 41,
          "target": {
            "node": 13,
            "path": "scale"
          }
        },
        {
          "sampler": 42,
          "target": {
            "node": 14,
            "path": "translation"
          }
        },
        {
          "sampler": 43,
          "target": {
            "node": 14,
            "path": "rotation"
          }
        },
        {
          "sampler": 44,
          "target": {
            "node": 14,
            "path": "scale"
          }
        },
        {
          "sampler": 45,
          "target": {
            "node": 15,
            "path": "translation"
          }
        },
        {
          "sampler": 46,
          "target": {
            "node": 15,
            "path": "rotation"
          }
        },
        {
          "sampler": 47,
          "target": {
            "node": 15,
            "path": "scale"
          }
        },
        {
          "sampler": 48,
          "target": {
            "node": 16,
            "path": "translation"
          }
        },
        {
          "sampler": 49,
          "target": {
            "node": 16,
            "path": "rotation"
          }
        },
        {
          "sampler": 50,
          "target": {
            "node": 16,
            "path": "scale"
          }
        },
        {
          "sampler": 51,
          "target": {
            "node": 17,
            "path": "translation"
          }
        },
        {
          "sampler": 52,
          "target": {
            "node": 17,
            "path": "rotation"
          }
        },
        {
          "sampler": 53,
          "target": {
            "node": 17,
            "path": "scale"
          }
        },
        {
          "sampler": 54,
          "target": {
            "node": 18,
            "path": "translation"
          }
        },
        {
          "sampler": 55,
          "target": {
            "node": 18,
            "path": "rotation"
          }
        },
        {
          "sampler": 56,
          "target": {
            "node": 18,
            "path": "scale"
          }
        },
        {
          "sampler": 57,
          "target": {
            "node": 19,
            "path": "translation"
          }
        },
        {
          "sampler": 58,
          "target": {
            "node": 19,
            "path": "rotation"
          }
        },
        {
          "sampler": 59,
          "target": {
            "node": 19,
            "path": "scale"
          }
        },
        {
          "sampler": 60,
          "target": {
            "node": 20,
            "path": "translation"
          }
        },
        {
          "sampler": 61,
          "target": {
            "node": 20,
            "path": "rotation"
          }
        },
        {
          "sampler": 62,
          "target": {
            "node": 20,
            "path": "scale"
          }
        },
        {
          "sampler": 63,
          "target": {
            "node": 21,
            "path": "translation"
          }
        },
        {
          "sampler": 64,
          "target": {
            "node": 21,
            "path": "rotation"
          }
        },
        {
          "sampler": 65,
          "target": {
            "node": 21,
            "path": "scale"
          }
        },
        {
          "sampler": 66,
          "target": {
            "node": 22,
            "path": "translation"
          }
        },
        {
          "sampler": 67,
          "target": {
            "node": 22,
            "path": "rotation"
          }
        },
        {
          "sampler": 68,
          "target": {
            "node": 22,
            "path": "scale"
          }
        },
        {
          "sampler": 69,
          "target": {
            "node": 23,
            "path": "translation"
          }
        },
        {
          "sampler": 70,
          "target": {
            "node": 23,
            "path": "rotation"
          }
        },
        {
          "sampler": 71,
          "target": {
            "node": 23,
            "path": "scale"
          }
        },
        {
          "sampler": 72,
          "target": {
            "node": 24,
            "path": "translation"
          }
        },
        {
          "sampler": 73,
          "target": {
            "node": 24,
            "path": "rotation"
          }
        },
        {
          "sampler": 74,
          "target": {
            "node": 24,
            "path": "scale"
          }
        },
        {
          "sampler": 75,
          "target": {
            "node": 25,
            "path": "translation"
          }
        },
        {
          "sampler": 76,
          "target": {
            "node": 25,
            "path": "rotation"
          }
        },
        {
          "sampler": 77,
          "target": {
            "node": 25,
            "path": "scale"
          }
        },
        {
          "sampler": 78,
          "target": {
            "node": 26,
            "path": "translation"
          }
        },
        {
          "sampler": 79,
          "target": {
            "node": 26,
            "path": "rotation"
          }
        },
        {
          "sampler": 80,
          "target": {
            "node": 26,
            "path": "scale"
          }
        },
        {
          "sampler": 81,
          "target": {
            "node": 28,
            "path": "translation"
          }
        },
        {
          "sampler": 82,
          "target": {
            "node": 28,
            "path": "rotation"
          }
        },
        {
          "sampler": 83,
          "target": {
            "node": 28,
            "path": "scale"
          }
        },
        {
          "sampler": 84,
          "target": {
            "node": 29,
            "path": "translation"
          }
        },
        {
          "sampler": 85,
          "target": {
            "node": 29,
            "path": "rotation"
          }
        },
        {
          "sampler": 86,
          "target": {
            "node": 29,
            "path": "scale"
          }
        },
        {
          "sampler": 87,
          "target": {
            "node": 31,
            "path": "translation"
          }
        },
        {
          "sampler": 88,
          "target": {
            "node": 31,
            "path": "rotation"
          }
        },
        {
          "sampler": 89,
          "target": {
            "node": 31,
            "path": "scale"
          }
        }
      ],
      "name": "Take 001",
      "samplers": [
        {
          "input": 1,
          "output": 0
        },
        {
          "input": 3,
          "output": 2
        },
        {
          "input": 5,
          "output": 4
        },
        {
          "input": 7,
          "output": 6
        },
        {
          "input": 9,
          "output": 8
        },
        {
          "input": 11,
          "output": 10
        },
        {
          "input": 13,
          "output": 12
        },
        {
          "input": 15,
          "output": 14
        },
        {
          "input": 17,
          "output": 16
        },
        {
          "input": 19,
          "output": 18
        },
        {
          "input": 21,
          "output": 20
        },
        {
          "input": 23,
          "output": 22
        },
        {
          "input": 25,
          "output": 24
        },
        {
          "input": 27,
          "output": 26
        },
        {
          "input": 29,
          "output": 28
        },
        {
          "input": 31,
          "output": 30
        },
        {
          "input": 33,
          "output": 32
        },
        {
          "input": 35,
          "output": 34
        },
        {
          "input": 37,
          "output": 36
        },
        {
          "input": 39,
          "output": 38
        },
        {
          "input": 41,
          "output": 40
        },
        {
          "input": 43,
          "output": 42
        },
        {
          "input": 45,
          "output": 44
        },
        {
          "input": 47,
          "output": 46
        },
        {
          "input": 49,
          "output": 48
        },
        {
          "input": 51,
          "output": 50
        },
        {
          "input": 53,
          "output": 52
        },
        {
          "input": 55,
          "output": 54
        },
        {
          "input": 57,
          "output": 56
        },
        {
          "input": 59,
          "output": 58
        },
        {
          "input": 61,
          "output": 60
        },
        {
          "input": 63,
          "output": 62
        },
        {
          "input": 65,
          "output": 64
        },
        {
          "input": 67,
          "output": 66
        },
        {
          "input": 69,
          "output": 68
        },
        {
          "input": 71,
          "output": 70
        },
        {
          "input": 73,
          "output": 72
        },
        {
          "input": 75,
          "output": 74
        },
        {
          "input": 77,
          "output": 76
        },
        {
          "input": 79,
          "output": 78
        },
        {
          "input": 81,
          "output": 80
        },
        {
          "input": 83,
          "output": 82
        },
        {
          "input": 85,
          "output": 84
        },
        {
          "input": 87,
          "output": 86
        },
        {
          "input": 89,
          "output": 88
        },
        {
          "input": 91,
          "output": 90
        },
        {
          "input": 93,
          "output": 92
        },
        {
          "input": 95,
          "output": 94
        },
        {
          "input": 97,
          "output": 96
        },
        {
          "input": 99,
          "output": 98
        },
        {
          "input": 101,
          "output": 100
        },
        {
          "input": 103,
          "output": 102
        },
        {
          "input": 105,
          "output": 104
        },
        {
          "input": 107,
          "output": 106
        },
        {
          "input": 109,
          "output": 108
        },
        {
          "input": 111,
          "output": 110
        },
        {
          "input": 113,
          "output": 112
        },
        {
          "input": 115,
          "output": 114
        },
        {
          "input": 117,
          "output": 116
        },
        {
          "input": 119,
          "output": 118
        },
        {
          "input": 121,
          "output": 120
        },
        {
          "input": 123,
          "output": 122
        },
        {
          "input": 125,
          "output": 124
        },
        {
          "input": 127,
          "output": 126
        },
        {
          "input": 129,
          "output": 128
        },
        {
          "input": 131,
          "output": 130
        },
        {
          "input": 133,
          "output": 132
        },
        {
          "input": 135,
          "output": 134
        },
        {
          "input": 137,
          "output": 136
        },
        {
          "input": 139,
          "output": 138
        },
        {
          "input": 141,
          "output": 140
        },
        {
          "input": 143,
          "output": 142
        },
        {
          "input": 145,
          "output": 144
        },
        {
          "input": 147,
          "output": 146
        },
        {
          "input": 149,
          "output": 148
        },
        {
          "input": 151,
          "output": 150
        },
        {
          "input": 153,
          "output": 152
        },
        {
          "input": 155,
          "output": 154
        },
        {
          "input": 157,
          "output": 156
        },
        {
          "input": 159,
          "output": 158
        },
        {
          "input": 161,
          "output": 160
        },
        {
          "input": 163,
          "output": 162
        },
        {
          "input": 165,
          "output": 164
        },
        {
          "input": 167,
          "output": 166
        },
        {
          "input": 169,
          "output": 168
        },
        {
          "input": 171,
          "output": 170
        },
        {
          "input": 173,
          "output": 172
        },
        {
          "input": 175,
          "output": 174
        },
        {
          "input": 177,
          "output": 176
        },
        {
          "input": 179,
          "output": 178
        }
      ]
    }
  ],
  "asset": {
    "copyright": "Copyright (c) 2018-2020 Chukong Technologies Inc.",
    "generator": "FBX-glTF-conv",
    "version": "2.0"
  },
  "bufferViews": [
    {
      "buffer": 0,
      "byteLength": 12
    },
    {
      "buffer": 0,
      "byteLength": 4,
      "byteOffset": 12
    },
    {
      "buffer": 0,
      "byteLength": 16,
      "byteOffset": 16
    },
    {
      "buffer": 0,
      "byteLength": 4,
      "byteOffset": 32
    },
    {
      "buffer": 0,
      "byteLength": 12,
      "byteOffset": 36
    },
    {
      "buffer": 0,
      "byteLength": 4,
      "byteOffset": 48
    },
    {
      "buffer": 0,
      "byteLength": 228,
      "byteOffset": 52
    },
    {
      "buffer": 0,
      "byteLength": 76,
      "byteOffset": 280
    },
    {
      "buffer": 0,
      "byteLength": 304,
      "byteOffset": 356
    },
    {
      "buffer": 0,
      "byteLength": 76,
      "byteOffset": 660
    },
    {
      "buffer": 0,
      "byteLength": 12,
      "byteOffset": 736
    },
    {
      "buffer": 0,
      "byteLength": 4,
      "byteOffset": 748
    },
    {
      "buffer": 0,
      "byteLength": 12,
      "byteOffset": 752
    },
    {
      "buffer": 0,
      "byteLength": 4,
      "byteOffset": 764
    },
    {
      "buffer": 0,
      "byteLength": 16,
      "byteOffset": 768
    },
    {
      "buffer": 0,
      "byteLength": 4,
      "byteOffset": 784
    },
    {
      "buffer": 0,
      "byteLength": 12,
      "byteOffset": 788
    },
    {
      "buffer": 0,
      "byteLength": 4,
      "byteOffset": 800
    },
    {
      "buffer": 0,
      "byteLength": 228,
      "byteOffset": 804
    },
    {
      "buffer": 0,
      "byteLength": 76,
      "byteOffset": 1032
    },
    {
      "buffer": 0,
      "byteLength": 304,
      "byteOffset": 1108
    },
    {
      "buffer": 0,
      "byteLength": 76,
      "byteOffset": 1412
    },
    {
      "buffer": 0,
      "byteLength": 12,
      "byteOffset": 1488
    },
    {
      "buffer": 0,
      "byteLength": 4,
      "byteOffset": 1500
    },
    {
      "buffer": 0,
      "byteLength": 228,
      "byteOffset": 1504
    },
    {
      "buffer": 0,
      "byteLength": 76,
      "byteOffset": 1732
    },
    {
      "buffer": 0,
      "byteLength": 304,
      "byteOffset": 1808
    },
    {
      "buffer": 0,
      "byteLength": 76,
      "byteOffset": 2112
    },
    {
      "buffer": 0,
      "byteLength": 12,
      "byteOffset": 2188
    },
    {
      "buffer": 0,
      "byteLength": 4,
      "byteOffset": 2200
    },
    {
      "buffer": 0,
      "byteLength": 60,
      "byteOffset": 2204
    },
    {
      "buffer": 0,
      "byteLength": 20,
      "byteOffset": 2264
    },
    {
      "buffer": 0,
      "byteLength": 16,
      "byteOffset": 2284
    },
    {
      "buffer": 0,
      "byteLength": 4,
      "byteOffset": 2300
    },
    {
      "buffer": 0,
      "byteLength": 12,
      "byteOffset": 2304
    },
    {
      "buffer": 0,
      "byteLength": 4,
      "byteOffset": 2316
    },
    {
      "buffer": 0,
      "byteLength": 60,
      "byteOffset": 2320
    },
    {
      "buffer": 0,
      "byteLength": 20,
      "byteOffset": 2380
    },
    {
      "buffer": 0,
      "byteLength": 288,
      "byteOffset": 2400
    },
    {
      "buffer": 0,
      "byteLength": 72,
      "byteOffset": 2688
    },
    {
      "buffer": 0,
      "byteLength": 12,
      "byteOffset": 2760
    },
    {
      "buffer": 0,
      "byteLength": 4,
      "byteOffset": 2772
    },
    {
      "buffer": 0,
      "byteLength": 12,
      "byteOffset": 2776
    },
    {
      "buffer": 0,
      "byteLength": 4,
      "byteOffset": 2788
    },
    {
      "buffer": 0,
      "byteLength": 304,
      "byteOffset": 2792
    },
    {
      "buffer": 0,
      "byteLength": 76,
      "byteOffset": 3096
    },
    {
      "buffer": 0,
      "byteLength": 12,
      "byteOffset": 3172
    },
    {
      "buffer": 0,
      "byteLength": 4,
      "byteOffset": 3184
    },
    {
      "buffer": 0,
      "byteLength": 12,
      "byteOffset": 3188
    },
    {
      "buffer": 0,
      "byteLength": 4,
      "byteOffset": 3200
    },
    {
      "buffer": 0,
      "byteLength": 304,
      "byteOffset": 3204
    },
    {
      "buffer": 0,
      "byteLength": 76,
      "byteOffset": 3508
    },
    {
      "buffer": 0,
      "byteLength": 12,
      "byteOffset": 3584
    },
    {
      "buffer": 0,
      "byteLength": 4,
      "byteOffset": 3596
    },
    {
      "buffer": 0,
      "byteLength": 60,
      "byteOffset": 3600
    },
    {
      "buffer": 0,
      "byteLength": 20,
      "byteOffset": 3660
    },
    {
      "buffer": 0,
      "byteLength": 304,
      "byteOffset": 3680
    },
    {
      "buffer": 0,
      "byteLength": 76,
      "byteOffset": 3984
    },
    {
      "buffer": 0,
      "byteLength": 12,
      "byteOffset": 4060
    },
    {
      "buffer": 0,
      "byteLength": 4,
      "byteOffset": 4072
    },
    {
      "buffer": 0,
      "byteLength": 24,
      "byteOffset": 4076
    },
    {
      "buffer": 0,
      "byteLength": 8,
      "byteOffset": 4100
    },
    {
      "buffer": 0,
      "byteLength": 304,
      "byteOffset": 4108
    },
    {
      "buffer": 0,
      "byteLength": 76,
      "byteOffset": 4412
    },
    {
      "buffer": 0,
      "byteLength": 12,
      "byteOffset": 4488
    },
    {
      "buffer": 0,
      "byteLength": 4,
      "byteOffset": 4500
    },
    {
      "buffer": 0,
      "byteLength": 12,
      "byteOffset": 4504
    },
    {
      "buffer": 0,
      "byteLength": 4,
      "byteOffset": 4516
    },
    {
      "buffer": 0,
      "byteLength": 288,
      "byteOffset": 4520
    },
    {
      "buffer": 0,
      "byteLength": 72,
      "byteOffset": 4808
    },
    {
      "buffer": 0,
      "byteLength": 12,
      "byteOffset": 4880
    },
    {
      "buffer": 0,
      "byteLength": 4,
      "byteOffset": 4892
    },
    {
      "buffer": 0,
      "byteLength": 48,
      "byteOffset": 4896
    },
    {
      "buffer": 0,
      "byteLength": 16,
      "byteOffset": 4944
    },
    {
      "buffer": 0,
      "byteLength": 304,
      "byteOffset": 4960
    },
    {
      "buffer": 0,
      "byteLength": 76,
      "byteOffset": 5264
    },
    {
      "buffer": 0,
      "byteLength": 12,
      "byteOffset": 5340
    },
    {
      "buffer": 0,
      "byteLength": 4,
      "byteOffset": 5352
    },
    {
      "buffer": 0,
      "byteLength": 12,
      "byteOffset": 5356
    },
    {
      "buffer": 0,
      "byteLength": 4,
      "byteOffset": 5368
    },
    {
      "buffer": 0,
      "byteLength": 304,
      "byteOffset": 5372
    },
    {
      "buffer": 0,
      "byteLength": 76,
      "byteOffset": 5676
    },
    {
      "buffer": 0,
      "byteLength": 12,
      "byteOffset": 5752
    },
    {
      "buffer": 0,
      "byteLength": 4,
      "byteOffset": 5764
    },
    {
      "buffer": 0,
      "byteLength": 48,
      "byteOffset": 5768
    },
    {
      "buffer": 0,
      "byteLength": 16,
      "byteOffset": 5816
    },
    {
      "buffer": 0,
      "byteLength": 304,
      "byteOffset": 5832
    },
    {
      "buffer": 0,
      "byteLength": 76,
      "byteOffset": 6136
    },
    {
      "buffer": 0,
      "byteLength": 12,
      "byteOffset": 6212
    },
    {
      "buffer": 0,
      "byteLength": 4,
      "byteOffset": 6224
    },
    {
      "buffer": 0,
      "byteLength": 48,
      "byteOffset": 6228
    },
    {
      "buffer": 0,
      "byteLength": 16,
      "byteOffset": 6276
    },
    {
      "buffer": 0,
      "byteLength": 304,
      "byteOffset": 6292
    },
    {
      "buffer": 0,
      "byteLength": 76,
      "byteOffset": 6596
    },
    {
      "buffer": 0,
      "byteLength": 12,
      "byteOffset": 6672
    },
    {
      "buffer": 0,
      "byteLength": 4,
      "byteOffset": 6684
    },
    {
      "buffer": 0,
      "byteLength": 12,
      "byteOffset": 6688
    },
    {
      "buffer": 0,
      "byteLength": 4,
      "byteOffset": 6700
    },
    {
      "buffer": 0,
      "byteLength": 304,
      "byteOffset": 6704
    },
    {
      "buffer": 0,
      "byteLength": 76,
      "byteOffset": 7008
    },
    {
      "buffer": 0,
      "byteLength": 12,
      "byteOffset": 7084
    },
    {
      "buffer": 0,
      "byteLength": 4,
      "byteOffset": 7096
    },
    {
      "buffer": 0,
      "byteLength": 12,
      "byteOffset": 7100
    },
    {
      "buffer": 0,
      "byteLength": 4,
      "byteOffset": 7112
    },
    {
      "buffer": 0,
      "byteLength": 304,
      "byteOffset": 7116
    },
    {
      "buffer": 0,
      "byteLength": 76,
      "byteOffset": 7420
    },
    {
      "buffer": 0,
      "byteLength": 12,
      "byteOffset": 7496
    },
    {
      "buffer": 0,
      "byteLength": 4,
      "byteOffset": 7508
    },
    {
      "buffer": 0,
      "byteLength": 12,
      "byteOffset": 7512
    },
    {
      "buffer": 0,
      "byteLength": 4,
      "byteOffset": 7524
    },
    {
      "buffer": 0,
      "byteLength": 304,
      "byteOffset": 7528
    },
    {
      "buffer": 0,
      "byteLength": 76,
      "byteOffset": 7832
    },
    {
      "buffer": 0,
      "byteLength": 12,
      "byteOffset": 7908
    },
    {
      "buffer": 0,
      "byteLength": 4,
      "byteOffset": 7920
    },
    {
      "buffer": 0,
      "byteLength": 12,
      "byteOffset": 7924
    },
    {
      "buffer": 0,
      "byteLength": 4,
      "byteOffset": 7936
    },
    {
      "buffer": 0,
      "byteLength": 304,
      "byteOffset": 7940
    },
    {
      "buffer": 0,
      "byteLength": 76,
      "byteOffset": 8244
    },
    {
      "buffer": 0,
      "byteLength": 12,
      "byteOffset": 8320
    },
    {
      "buffer": 0,
      "byteLength": 4,
      "byteOffset": 8332
    },
    {
      "buffer": 0,
      "byteLength": 12,
      "byteOffset": 8336
    },
    {
      "buffer": 0,
      "byteLength": 4,
      "byteOffset": 8348
    },
    {
      "buffer": 0,
      "byteLength": 304,
      "byteOffset": 8352
    },
    {
      "buffer": 0,
      "byteLength": 76,
      "byteOffset": 8656
    },
    {
      "buffer": 0,
      "byteLength": 12,
      "byteOffset": 8732
    },
    {
      "buffer": 0,
      "byteLength": 4,
      "byteOffset": 8744
    },
    {
      "buffer": 0,
      "byteLength": 12,
      "byteOffset": 8748
    },
    {
      "buffer": 0,
      "byteLength": 4,
      "byteOffset": 8760
    },
    {
      "buffer": 0,
      "byteLength": 304,
      "byteOffset": 8764
    },
    {
      "buffer": 0,
      "byteLength": 76,
      "byteOffset": 9068
    },
    {
      "buffer": 0,
      "byteLength": 12,
      "byteOffset": 9144
    },
    {
      "buffer": 0,
      "byteLength": 4,
      "byteOffset": 9156
    },
    {
      "buffer": 0,
      "byteLength": 12,
      "byteOffset": 9160
    },
    {
      "buffer": 0,
      "byteLength": 4,
      "byteOffset": 9172
    },
    {
      "buffer": 0,
      "byteLength": 304,
      "byteOffset": 9176
    },
    {
      "buffer": 0,
      "byteLength": 76,
      "byteOffset": 9480
    },
    {
      "buffer": 0,
      "byteLength": 12,
      "byteOffset": 9556
    },
    {
      "buffer": 0,
      "byteLength": 4,
      "byteOffset": 9568
    },
    {
      "buffer": 0,
      "byteLength": 12,
      "byteOffset": 9572
    },
    {
      "buffer": 0,
      "byteLength": 4,
      "byteOffset": 9584
    },
    {
      "buffer": 0,
      "byteLength": 304,
      "byteOffset": 9588
    },
    {
      "buffer": 0,
      "byteLength": 76,
      "byteOffset": 9892
    },
    {
      "buffer": 0,
      "byteLength": 12,
      "byteOffset": 9968
    },
    {
      "buffer": 0,
      "byteLength": 4,
      "byteOffset": 9980
    },
    {
      "buffer": 0,
      "byteLength": 12,
      "byteOffset": 9984
    },
    {
      "buffer": 0,
      "byteLength": 4,
      "byteOffset": 9996
    },
    {
      "buffer": 0,
      "byteLength": 304,
      "byteOffset": 10000
    },
    {
      "buffer": 0,
      "byteLength": 76,
      "byteOffset": 10304
    },
    {
      "buffer": 0,
      "byteLength": 12,
      "byteOffset": 10380
    },
    {
      "buffer": 0,
      "byteLength": 4,
      "byteOffset": 10392
    },
    {
      "buffer": 0,
      "byteLength": 12,
      "byteOffset": 10396
    },
    {
      "buffer": 0,
      "byteLength": 4,
      "byteOffset": 10408
    },
    {
      "buffer": 0,
      "byteLength": 304,
      "byteOffset": 10412
    },
    {
      "buffer": 0,
      "byteLength": 76,
      "byteOffset": 10716
    },
    {
      "buffer": 0,
      "byteLength": 12,
      "byteOffset": 10792
    },
    {
      "buffer": 0,
      "byteLength": 4,
      "byteOffset": 10804
    },
    {
      "buffer": 0,
      "byteLength": 12,
      "byteOffset": 10808
    },
    {
      "buffer": 0,
      "byteLength": 4,
      "byteOffset": 10820
    },
    {
      "buffer": 0,
      "byteLength": 304,
      "byteOffset": 10824
    },
    {
      "buffer": 0,
      "byteLength": 76,
      "byteOffset": 11128
    },
    {
      "buffer": 0,
      "byteLength": 12,
      "byteOffset": 11204
    },
    {
      "buffer": 0,
      "byteLength": 4,
      "byteOffset": 11216
    },
    {
      "buffer": 0,
      "byteLength": 12,
      "byteOffset": 11220
    },
    {
      "buffer": 0,
      "byteLength": 4,
      "byteOffset": 11232
    },
    {
      "buffer": 0,
      "byteLength": 16,
      "byteOffset": 11236
    },
    {
      "buffer": 0,
      "byteLength": 4,
      "byteOffset": 11252
    },
    {
      "buffer": 0,
      "byteLength": 12,
      "byteOffset": 11256
    },
    {
      "buffer": 0,
      "byteLength": 4,
      "byteOffset": 11268
    },
    {
      "buffer": 0,
      "byteLength": 12,
      "byteOffset": 11272
    },
    {
      "buffer": 0,
      "byteLength": 4,
      "byteOffset": 11284
    },
    {
      "buffer": 0,
      "byteLength": 16,
      "byteOffset": 11288
    },
    {
      "buffer": 0,
      "byteLength": 4,
      "byteOffset": 11304
    },
    {
      "buffer": 0,
      "byteLength": 12,
      "byteOffset": 11308
    },
    {
      "buffer": 0,
      "byteLength": 4,
      "byteOffset": 11320
    },
    {
      "buffer": 0,
      "byteLength": 228,
      "byteOffset": 11324
    },
    {
      "buffer": 0,
      "byteLength": 76,
      "byteOffset": 11552
    },
    {
      "buffer": 0,
      "byteLength": 304,
      "byteOffset": 11628
    },
    {
      "buffer": 0,
      "byteLength": 76,
      "byteOffset": 11932
    },
    {
      "buffer": 0,
      "byteLength": 12,
      "byteOffset": 12008
    },
    {
      "buffer": 0,
      "byteLength": 4,
      "byteOffset": 12020
    }
  ],
  "buffers": [
    {
      "byteLength": 12024,
      "uri": "out.bin"
    }
  ],
  "extras": {
    "FBX-glTF-conv": {
      "animationFrameRate": 30.0,
      "fbxFileHeaderInfo": {
        "creationTimeStamp": {
          "day": 18,
          "hour": 15,
          "millisecond": 630,
          "minute": 3,
          "month": 6,
          "second": 24,
          "year": 2025
        },
        "creator": "FBX SDK/FBX Plugins version 2020.3.5",
        "sceneInfo": {
          "author": "",
          "comment": "",
          "keywords": "",
          "original": {
            "applicationName": "3ds Max",
            "applicationVendor": "Autodesk",
            "applicationVersion": "2025",
            "fileName": "C:\\PRR\\dfw-asset\\AssetProject\\Assets\\Resources\\Character\\NPC\\NPC_Summon\\TT_TEST\\Animation\\@One_CorssBow.fbx"
          },
          "revision": "",
          "subject": "",
          "title": "",
          "url": "C:\\Users\\김유성\\Desktop\\cocos creator practice\\testproject - 복사본\\assets\\NPC_Summon\\Animation\\@One_BT_Attack01.fbx"
        }
      }
    }
  },
  "nodes": [
    {
      "children": [
        1,
        30,
        31
      ],
      "extras": {
        "FBX-glTF-conv": {
          "skeleton": {
            "skeletonType": "LimbNode"
          }
        }
      },
      "name": "Root",
      "rotation": [
        -0.7071067690849304,
        -0.0,
        0.0,
        0.7071067690849304
      ]
    },
    {
      "children": [
        2
      ],
      "extras": {
        "FBX-glTF-conv": {
          "skeleton": {
            "skeletonType": "Root"
          }
        }
      },
      "name": "Bip001",
      "rotation": [
        0.0037017904687672853,
        0.019156966358423233,
        -0.7931091785430908,
        0.6087669134140015
      ],
      "translation": [
        0.02308330498635769,
        0.00011043669655919075,
        0.2763301432132721
      ]
    },
    {
      "children": [
        3,
        19,
        23,
        27,
        28,
        29
      ],
      "extras": {
        "FBX-glTF-conv": {
          "skeleton": {
            "skeletonType": "LimbNode"
          }
        }
      },
      "name": "Bip001 Pelvis",
      "rotation": [
        -0.5,
        -0.5,
        -0.4999993145465851,
        0.5000007152557373
      ]
    },
    {
      "children": [
        4
      ],
      "extras": {
        "FBX-glTF-conv": {
          "skeleton": {
            "skeletonType": "LimbNode"
          }
        }
      },
      "name": "Bip001 Spine",
      "rotation": [
        -0.06105821207165718,
        -0.00823828112334013,
        -0.0023675139527767897,
        0.9980974197387695
      ],
      "translation": [
        0.11033685505390167,
        -0.0001518225617473945,
        1.8793343770084903e-05
      ]
    },
    {
      "children": [
        5
      ],
      "extras": {
        "FBX-glTF-conv": {
          "skeleton": {
            "skeletonType": "LimbNode"
          }
        }
      },
      "name": "Bip001 Spine1",
      "rotation": [
        -0.10397522896528244,
        0.0538574680685997,
        -0.015083514153957367,
        0.9930060505867004
      ],
      "translation": [
        0.19211548566818237,
        -0.0001299905707128346,
        2.766847683233209e-05
      ]
    },
    {
      "children": [
        6,
        12,
        18
      ],
      "extras": {
        "FBX-glTF-conv": {
          "skeleton": {
            "skeletonType": "LimbNode"
          }
        }
      },
      "name": "Bip001 Neck",
      "translation": [
        0.16195979714393616,
        -0.028134049847722054,
        -4.2915345943583816e-08
      ]
    },
    {
      "children": [
        7
      ],
      "extras": {
        "FBX-glTF-conv": {
          "skeleton": {
            "skeletonType": "LimbNode"
          }
        }
      },
      "name": "Bip001 L Clavicle",
      "rotation": [
        0.5944086313247681,
        0.06970477849245071,
        0.799426257610321,
        0.052319012582302094
      ],
      "translation": [
        -0.08852233737707138,
        0.040780071169137955,
        0.13222543895244598
      ]
    },
    {
      "children": [
        8,
        10
      ],
      "extras": {
        "FBX-glTF-conv": {
          "skeleton": {
            "skeletonType": "LimbNode"
          }
        }
      },
      "name": "Bip001 L UpperArm",
      "rotation": [
        -0.04854367673397064,
        0.23020313680171967,
        -0.3917013108730316,
        0.8895055651664734
      ],
      "translation": [
        0.12998327612876892,
        1.4305114426349519e-08,
        0.0
      ]
    },
    {
      "children": [
        9
      ],
      "extras": {
        "FBX-glTF-conv": {
          "skeleton": {
            "skeletonType": "LimbNode"
          }
        }
      },
      "name": "Bip001 L Forearm",
      "rotation": [
        -5.1237453113331155e-17,
        2.1359102089680883e-17,
        -0.3847713768482208,
        0.9230118989944458
      ],
      "translation": [
        0.12101766467094421,
        -1.907348590179936e-08,
        0.0
      ]
    },
    {
      "extras": {
        "FBX-glTF-conv": {
          "skeleton": {
            "skeletonType": "LimbNode"
          }
        }
      },
      "name": "Bip001 L Hand",
      "rotation": [
        -0.704135537147522,
        0.0616038516163826,
        -0.061652932316064835,
        0.7046964168548584
      ],
      "translation": [
        0.101692333817482,
        -5.329070399086743e-17,
        7.629394360719743e-08
      ]
    },
    {
      "children": [
        11
      ],
      "extras": {
        "FBX-glTF-conv": {
          "skeleton": {
            "skeletonType": "LimbNode"
          }
        }
      },
      "name": "Bone L UpperArm Twist",
      "rotation": [
        0.054492752999067307,
        1.5285019472344175e-08,
        6.627503434941673e-09,
        0.9985141754150391
      ],
      "translation": [
        1.907348590179936e-08,
        -1.907348590179936e-08,
        -1.5258788721439487e-07
      ]
    },
    {
      "extras": {
        "FBX-glTF-conv": {
          "skeleton": {
            "skeletonType": "LimbNode"
          }
        }
      },
      "name": "Bone L UpperArm Twist1",
      "rotation": [
        -0.027256514877080917,
        1.4895625177757665e-08,
        4.061537217658895e-10,
        0.999628484249115
      ],
      "translation": [
        0.06050878390669823,
        -1.907348590179936e-08,
        -7.629394360719743e-08
      ]
    },
    {
      "children": [
        13
      ],
      "extras": {
        "FBX-glTF-conv": {
          "skeleton": {
            "skeletonType": "LimbNode"
          }
        }
      },
      "name": "Bip001 R Clavicle",
      "rotation": [
        0.7133930325508118,
        0.14037707448005676,
        -0.6699692010879517,
        -0.15001967549324036
      ],
      "translation": [
        -0.08852233737707138,
        0.04078082740306854,
        -0.13222527503967285
      ]
    },
    {
      "children": [
        14,
        16
      ],
      "extras": {
        "FBX-glTF-conv": {
          "skeleton": {
            "skeletonType": "LimbNode"
          }
        }
      },
      "name": "Bip001 R UpperArm",
      "rotation": [
        -0.008758056908845901,
        -0.10578398406505585,
        -0.2869608700275421,
        0.952043354511261
      ],
      "translation": [
        0.1299833208322525,
        2.38418573772492e-09,
        -7.629394360719743e-08
      ]
    },
    {
      "children": [
        15
      ],
      "extras": {
        "FBX-glTF-conv": {
          "skeleton": {
            "skeletonType": "LimbNode"
          }
        }
      },
      "name": "Bip001 R Forearm",
      "rotation": [
        6.1222759741861966e-18,
        8.442421225856077e-18,
        -0.5354220867156982,
        0.844584584236145
      ],
      "translation": [
        0.12101765722036362,
        0.0,
        -7.629394360719743e-08
      ]
    },
    {
      "extras": {
        "FBX-glTF-conv": {
          "skeleton": {
            "skeletonType": "LimbNode"
          }
        }
      },
      "name": "Bip001 R Hand",
      "rotation": [
        0.7750128507614136,
        -0.03199629485607147,
        0.26273196935653687,
        0.5738495588302612
      ],
      "translation": [
        0.101692333817482,
        3.814697180359872e-08,
        7.629394360719743e-08
      ]
    },
    {
      "children": [
        17
      ],
      "extras": {
        "FBX-glTF-conv": {
          "skeleton": {
            "skeletonType": "LimbNode"
          }
        }
      },
      "name": "Bone R UpperArm Twist",
      "rotation": [
        0.009198842570185661,
        -7.3817285617394646e-09,
        7.518802469519414e-09,
        0.9999576807022095
      ],
      "translation": [
        6.67572024326546e-08,
        0.0,
        -7.629394360719743e-08
      ]
    },
    {
      "extras": {
        "FBX-glTF-conv": {
          "skeleton": {
            "skeletonType": "LimbNode"
          }
        }
      },
      "name": "Bone R UpperArm Twist1",
      "rotation": [
        -0.004599463660269976,
        -1.494812096325404e-08,
        1.017590189889006e-08,
        0.9999894499778748
      ],
      "translation": [
        0.06050874665379524,
        1.776356799695581e-17,
        0.0
      ]
    },
    {
      "extras": {
        "FBX-glTF-conv": {
          "skeleton": {
            "skeletonType": "LimbNode"
          }
        }
      },
      "name": "Bip001 Head",
      "rotation": [
        0.2897512912750244,
        -0.043503426015377045,
        0.06310117244720459,
        0.9540282487869263
      ],
      "translation": [
        0.023083191365003586,
        0.0,
        4.76837147544984e-09
      ]
    },
    {
      "children": [
        20,
        22
      ],
      "extras": {
        "FBX-glTF-conv": {
          "skeleton": {
            "skeletonType": "LimbNode"
          }
        }
      },
      "name": "Bip001 L Thigh",
      "rotation": [
        0.18817909061908722,
        0.972632884979248,
        0.11800892651081085,
        -0.06817478686571121
      ],
      "translation": [
        -2.0980834847250662e-07,
        2.0980834847250662e-07,
        0.14431753754615784
      ]
    },
    {
      "children": [
        21
      ],
      "extras": {
        "FBX-glTF-conv": {
          "skeleton": {
            "skeletonType": "LimbNode"
          }
        }
      },
      "name": "Bip001 L Calf",
      "rotation": [
        3.0498891579429897e-18,
        -3.644094144175304e-18,
        -0.26378634572029114,
        0.9645811319351196
      ],
      "translation": [
        0.16741228103637695,
        -1.907348590179936e-08,
        0.0
      ]
    },
    {
      "extras": {
        "FBX-glTF-conv": {
          "skeleton": {
            "skeletonType": "LimbNode"
          }
        }
      },
      "name": "Bip001 L Foot",
      "rotation": [
        -0.016854846850037575,
        -0.03696643188595772,
        0.08665948361158371,
        0.9954092502593994
      ],
      "translation": [
        0.05066262185573578,
        -9.53674295089968e-09,
        0.0
      ]
    },
    {
      "extras": {
        "FBX-glTF-conv": {
          "skeleton": {
            "skeletonType": "LimbNode"
          }
        }
      },
      "name": "Bone L Thigh Twist",
      "rotation": [
        0.1204460933804512,
        5.384359180737874e-09,
        4.437803013956909e-08,
        0.9927198886871338
      ],
      "translation": [
        -1.907348590179936e-08,
        0.0,
        -1.907348590179936e-08
      ]
    },
    {
      "children": [
        24,
        26
      ],
      "extras": {
        "FBX-glTF-conv": {
          "skeleton": {
            "skeletonType": "LimbNode"
          }
        }
      },
      "name": "Bip001 R Thigh",
      "rotation": [
        0.04955075681209564,
        0.9973750114440918,
        -0.02244650013744831,
        0.04779087379574776
      ],
      "translation": [
        1.9073486612342094e-07,
        -1.8715859084750264e-07,
        -0.14431753754615784
      ]
    },
    {
      "children": [
        25
      ],
      "extras": {
        "FBX-glTF-conv": {
          "skeleton": {
            "skeletonType": "LimbNode"
          }
        }
      },
      "name": "Bip001 R Calf",
      "rotation": [
        2.5009742954814238e-17,
        -1.8370566365337023e-17,
        -0.1690671443939209,
        0.9856045246124268
      ],
      "translation": [
        0.16741226613521576,
        -4.440891999238953e-18,
        0.0
      ]
    },
    {
      "extras": {
        "FBX-glTF-conv": {
          "skeleton": {
            "skeletonType": "LimbNode"
          }
        }
      },
      "name": "Bip001 R Foot",
      "rotation": [
        0.012200809083878994,
        0.06237536668777466,
        0.13124260306358337,
        0.9893108010292053
      ],
      "translation": [
        0.050662655383348465,
        8.344650304081824e-09,
        -1.776356799695581e-17
      ]
    },
    {
      "extras": {
        "FBX-glTF-conv": {
          "skeleton": {
            "skeletonType": "LimbNode"
          }
        }
      },
      "name": "Bone R Thigh Twist",
      "rotation": [
        -0.02249986305832863,
        -4.2141273581819405e-08,
        5.121885138237303e-08,
        0.9997468590736389
      ],
      "translation": [
        3.814697180359872e-08,
        -2.38418573772492e-09,
        -1.907348590179936e-08
      ]
    },
    {
      "name": "Point001",
      "rotation": [
        0.7070836424827576,
        0.005861147306859493,
        0.7070813775062561,
        -0.0058611659333109856
      ],
      "translation": [
        0.0,
        -1.8596648487800849e-07,
        1.907348590179936e-08
      ]
    },
    {
      "extras": {
        "FBX-glTF-conv": {
          "skeleton": {
            "skeletonType": "LimbNode"
          }
        }
      },
      "name": "Bip001_B_R Hip",
      "rotation": [
        0.7394389510154724,
        -0.6732161045074463,
        0.0020256941206753254,
        0.0024409666657447815
      ],
      "translation": [
        0.027578335255384445,
        -0.001499966369010508,
        -0.14431747794151306
      ]
    },
    {
      "extras": {
        "FBX-glTF-conv": {
          "skeleton": {
            "skeletonType": "LimbNode"
          }
        }
      },
      "name": "Bip001_B_L Hip",
      "rotation": [
        0.7394389510154724,
        -0.6732161641120911,
        -0.002023407956585288,
        -0.0024397079832851887
      ],
      "translation": [
        0.027577990666031837,
        -0.0014991617063060403,
        0.14431756734848022
      ]
    },
    {
      "extras": {
        "FBX-glTF-conv": {
          "skeleton": {
            "skeletonType": "LimbNode"
          }
        }
      },
      "name": "Bone_Branch",
      "rotation": [
        -0.49999961256980896,
        -0.5000004172325134,
        -0.4999995231628418,
        0.5000004768371582
      ],
      "translation": [
        0.0,
        -0.00812519807368517,
        1.0751062631607056
      ]
    },
    {
      "extras": {
        "FBX-glTF-conv": {
          "skeleton": {
            "skeletonType": "LimbNode"
          }
        }
      },
      "name": "Bone_CrossBow",
      "rotation": [
        0.7124618887901306,
        -0.7005149722099304,
        -0.03720143437385559,
        0.017114728689193726
      ],
      "translation": [
        -0.25411108136177063,
        -0.01534053310751915,
        0.5674833059310913
      ]
    }
  ],
  "scenes": [
    {
      "nodes": [
        0
      ]
    }
  ]
}