{
  "accessors": [
    {
      "bufferView": 0,
      "componentType": 5126,
      "count": 130,
      "max": [
        0.7749923467636108,
        0.18448497354984283,
        0.7653478980064392
      ],
      "min": [
        -0.7749921679496765,
        -0.18448494374752045,
        -0.7845562696456909
      ],
      "name": "Env_Resource_EXP01/POSITION",
      "type": "VEC3"
    },
    {
      "bufferView": 0,
      "byteOffset": 12,
      "componentType": 5126,
      "count": 130,
      "name": "Env_Resource_EXP01/NORMAL",
      "type": "VEC3"
    },
    {
      "bufferView": 0,
      "byteOffset": 24,
      "componentType": 5126,
      "count": 130,
      "name": "Env_Resource_EXP01/TEXCOORD_0",
      "type": "VEC2"
    },
    {
      "bufferView": 1,
      "componentType": 5123,
      "count": 504,
      "name": "Env_Resource_EXP01/INDICES",
      "type": "SCALAR"
    }
  ],
  "asset": {
    "copyright": "Copyright (c) 2018-2020 Chukong Technologies Inc.",
    "generator": "FBX-glTF-conv",
    "version": "2.0"
  },
  "bufferViews": [
    {
      "buffer": 0,
      "byteLength": 4160,
      "byteStride": 32,
      "name": "Env_Resource_EXP01",
      "target": 34962
    },
    {
      "buffer": 0,
      "byteLength": 1008,
      "byteOffset": 4160,
      "target": 34963
    }
  ],
  "buffers": [
    {
      "byteLength": 5168,
      "uri": "out.bin"
    }
  ],
  "extras": {
    "FBX-glTF-conv": {
      "animationFrameRate": 30.0,
      "fbxFileHeaderInfo": {
        "creationTimeStamp": {
          "day": 25,
          "hour": 17,
          "millisecond": 640,
          "minute": 40,
          "month": 6,
          "second": 44,
          "year": 2025
        },
        "creator": "FBX SDK/FBX Plugins version 2020.3.4",
        "sceneInfo": {
          "author": "",
          "comment": "",
          "keywords": "",
          "original": {
            "applicationName": "3ds Max",
            "applicationVendor": "Autodesk",
            "applicationVersion": "2024",
            "fileName": "C:\\HSM\\dfw-client\\dfwClient\\Assets\\TT\\Resources\\Env\\FBX\\Env_Resource_EXP01.fbx"
          },
          "revision": "",
          "subject": "",
          "title": "",
          "url": "C:\\Users\\김유성\\Desktop\\cocos creator practice\\testproject\\assets\\Env_Resource_EXP01.fbx"
        }
      }
    }
  },
  "meshes": [
    {
      "name": "Env_Resource_EXP01",
      "primitives": [
        {
          "attributes": {
            "NORMAL": 1,
            "POSITION": 0,
            "TEXCOORD_0": 2
          },
          "indices": 3
        }
      ]
    }
  ],
  "nodes": [
    {
      "mesh": 0,
      "name": "Env_Resource_EXP01",
      "rotation": [
        -0.7071067690849304,
        -0.0,
        0.0,
        0.7071067690849304
      ],
      "scale": [
        0.009999999776482582,
        0.009999999776482582,
        0.009999999776482582
      ],
      "translation": [
        0.0,
        0.0,
        8.917351232429205e-12
      ]
    }
  ],
  "scenes": [
    {
      "nodes": [
        0
      ]
    }
  ]
}